<svg width="440" height="581" viewBox="0 0 440 581" fill="none" xmlns="http://www.w3.org/2000/svg">
<rect x="0.3" y="0.3" width="439.4" height="120.65" rx="7.7" fill="#1D1D1D" stroke="#343B4F" stroke-width="0.6"/>
<path fill-rule="evenodd" clip-rule="evenodd" d="M35.1028 33.9058C35.73 32.7992 37.8424 29.7342 41.9981 29.7342C46.1538 29.7342 48.2662 32.7992 48.8934 33.9058C49.0329 34.1519 49.0329 34.4446 48.8934 34.6907C48.2662 35.7973 46.1538 38.8623 41.9981 38.8623C37.8424 38.8623 35.73 35.7973 35.1028 34.6907C34.9632 34.4446 34.9632 34.1519 35.1028 33.9058ZM44.535 34.2986C44.535 35.699 43.3998 36.8342 41.9994 36.8342C40.599 36.8342 39.4638 35.699 39.4638 34.2986C39.4638 32.8983 40.599 31.763 41.9994 31.763C43.3998 31.763 44.535 32.8983 44.535 34.2986Z" fill="#AEB9E1"/>
<path d="M63.732 32.4421C63.732 32.8661 63.632 33.2661 63.432 33.6421C63.232 34.0181 62.912 34.3261 62.472 34.5661C62.032 34.7981 61.468 34.9141 60.78 34.9141H59.268V38.2981H57.9V29.9581H60.78C61.42 29.9581 61.96 30.0701 62.4 30.2941C62.848 30.5101 63.18 30.8061 63.396 31.1821C63.62 31.5581 63.732 31.9781 63.732 32.4421ZM60.78 33.7981C61.3 33.7981 61.688 33.6821 61.944 33.4501C62.2 33.2101 62.328 32.8741 62.328 32.4421C62.328 31.5301 61.812 31.0741 60.78 31.0741H59.268V33.7981H60.78ZM64.5807 34.9621C64.5807 34.2981 64.7167 33.7101 64.9887 33.1981C65.2687 32.6861 65.6447 32.2901 66.1167 32.0101C66.5967 31.7221 67.1247 31.5781 67.7007 31.5781C68.2207 31.5781 68.6727 31.6821 69.0567 31.8901C69.4487 32.0901 69.7607 32.3421 69.9927 32.6461V31.6861H71.3727V38.2981H69.9927V37.3141C69.7607 37.6261 69.4447 37.8861 69.0447 38.0941C68.6447 38.3021 68.1887 38.4061 67.6767 38.4061C67.1087 38.4061 66.5887 38.2621 66.1167 37.9741C65.6447 37.6781 65.2687 37.2701 64.9887 36.7501C64.7167 36.2221 64.5807 35.6261 64.5807 34.9621ZM69.9927 34.9861C69.9927 34.5301 69.8967 34.1341 69.7047 33.7981C69.5207 33.4621 69.2767 33.2061 68.9727 33.0301C68.6687 32.8541 68.3407 32.7661 67.9887 32.7661C67.6367 32.7661 67.3087 32.8541 67.0047 33.0301C66.7007 33.1981 66.4527 33.4501 66.2607 33.7861C66.0767 34.1141 65.9847 34.5061 65.9847 34.9621C65.9847 35.4181 66.0767 35.8181 66.2607 36.1621C66.4527 36.5061 66.7007 36.7701 67.0047 36.9541C67.3167 37.1301 67.6447 37.2181 67.9887 37.2181C68.3407 37.2181 68.6687 37.1301 68.9727 36.9541C69.2767 36.7781 69.5207 36.5221 69.7047 36.1861C69.8967 35.8421 69.9927 35.4421 69.9927 34.9861ZM75.8335 31.5781C76.3455 31.5781 76.7975 31.6821 77.1895 31.8901C77.5895 32.0901 77.9015 32.3421 78.1255 32.6461V31.6861H79.5055V38.4061C79.5055 39.0141 79.3775 39.5541 79.1215 40.0261C78.8655 40.5061 78.4935 40.8821 78.0055 41.1541C77.5255 41.4261 76.9495 41.5621 76.2775 41.5621C75.3815 41.5621 74.6375 41.3501 74.0455 40.9261C73.4535 40.5101 73.1175 39.9421 73.0375 39.2221H74.3935C74.4975 39.5661 74.7175 39.8421 75.0535 40.0501C75.3975 40.2661 75.8055 40.3741 76.2775 40.3741C76.8295 40.3741 77.2735 40.2061 77.6095 39.8701C77.9535 39.5341 78.1255 39.0461 78.1255 38.4061V37.3021C77.8935 37.6141 77.5775 37.8781 77.1775 38.0941C76.7855 38.3021 76.3375 38.4061 75.8335 38.4061C75.2575 38.4061 74.7295 38.2621 74.2495 37.9741C73.7775 37.6781 73.4015 37.2701 73.1215 36.7501C72.8495 36.2221 72.7135 35.6261 72.7135 34.9621C72.7135 34.2981 72.8495 33.7101 73.1215 33.1981C73.4015 32.6861 73.7775 32.2901 74.2495 32.0101C74.7295 31.7221 75.2575 31.5781 75.8335 31.5781ZM78.1255 34.9861C78.1255 34.5301 78.0295 34.1341 77.8375 33.7981C77.6535 33.4621 77.4095 33.2061 77.1055 33.0301C76.8015 32.8541 76.4735 32.7661 76.1215 32.7661C75.7695 32.7661 75.4415 32.8541 75.1375 33.0301C74.8335 33.1981 74.5855 33.4501 74.3935 33.7861C74.2095 34.1141 74.1175 34.5061 74.1175 34.9621C74.1175 35.4181 74.2095 35.8181 74.3935 36.1621C74.5855 36.5061 74.8335 36.7701 75.1375 36.9541C75.4495 37.1301 75.7775 37.2181 76.1215 37.2181C76.4735 37.2181 76.8015 37.1301 77.1055 36.9541C77.4095 36.7781 77.6535 36.5221 77.8375 36.1861C78.0295 35.8421 78.1255 35.4421 78.1255 34.9861ZM87.3623 34.8301C87.3623 35.0781 87.3463 35.3021 87.3143 35.5021H82.2623C82.3023 36.0301 82.4983 36.4541 82.8503 36.7741C83.2023 37.0941 83.6343 37.2541 84.1463 37.2541C84.8823 37.2541 85.4023 36.9461 85.7063 36.3301H87.1823C86.9823 36.9381 86.6183 37.4381 86.0903 37.8301C85.5703 38.2141 84.9223 38.4061 84.1463 38.4061C83.5143 38.4061 82.9463 38.2661 82.4423 37.9861C81.9463 37.6981 81.5543 37.2981 81.2663 36.7861C80.9863 36.2661 80.8463 35.6661 80.8463 34.9861C80.8463 34.3061 80.9823 33.7101 81.2543 33.1981C81.5343 32.6781 81.9223 32.2781 82.4183 31.9981C82.9223 31.7181 83.4983 31.5781 84.1463 31.5781C84.7703 31.5781 85.3263 31.7141 85.8143 31.9861C86.3023 32.2581 86.6823 32.6421 86.9543 33.1381C87.2263 33.6261 87.3623 34.1901 87.3623 34.8301ZM85.9343 34.3981C85.9263 33.8941 85.7463 33.4901 85.3943 33.1861C85.0423 32.8821 84.6063 32.7301 84.0863 32.7301C83.6143 32.7301 83.2103 32.8821 82.8743 33.1861C82.5383 33.4821 82.3383 33.8861 82.2743 34.3981H85.9343ZM91.2646 37.0741L93.1366 31.6861H94.5886L92.0686 38.2981H90.4366L87.9286 31.6861H89.3926L91.2646 37.0741ZM96.3187 30.8101C96.0707 30.8101 95.8627 30.7261 95.6947 30.5581C95.5267 30.3901 95.4427 30.1821 95.4427 29.9341C95.4427 29.6861 95.5267 29.4781 95.6947 29.3101C95.8627 29.1421 96.0707 29.0581 96.3187 29.0581C96.5587 29.0581 96.7627 29.1421 96.9307 29.3101C97.0987 29.4781 97.1827 29.6861 97.1827 29.9341C97.1827 30.1821 97.0987 30.3901 96.9307 30.5581C96.7627 30.7261 96.5587 30.8101 96.3187 30.8101ZM96.9907 31.6861V38.2981H95.6227V31.6861H96.9907ZM104.847 34.8301C104.847 35.0781 104.831 35.3021 104.799 35.5021H99.7467C99.7867 36.0301 99.9827 36.4541 100.335 36.7741C100.687 37.0941 101.119 37.2541 101.631 37.2541C102.367 37.2541 102.887 36.9461 103.191 36.3301H104.667C104.467 36.9381 104.103 37.4381 103.575 37.8301C103.055 38.2141 102.407 38.4061 101.631 38.4061C100.999 38.4061 100.431 38.2661 99.9267 37.9861C99.4307 37.6981 99.0387 37.2981 98.7507 36.7861C98.4707 36.2661 98.3307 35.6661 98.3307 34.9861C98.3307 34.3061 98.4667 33.7101 98.7387 33.1981C99.0187 32.6781 99.4067 32.2781 99.9027 31.9981C100.407 31.7181 100.983 31.5781 101.631 31.5781C102.255 31.5781 102.811 31.7141 103.299 31.9861C103.787 32.2581 104.167 32.6421 104.439 33.1381C104.711 33.6261 104.847 34.1901 104.847 34.8301ZM103.419 34.3981C103.411 33.8941 103.231 33.4901 102.879 33.1861C102.527 32.8821 102.091 32.7301 101.571 32.7301C101.099 32.7301 100.695 32.8821 100.359 33.1861C100.023 33.4821 99.8227 33.8861 99.7587 34.3981H103.419ZM115.073 31.6861L113.021 38.2981H111.581L110.249 33.4141L108.917 38.2981H107.477L105.413 31.6861H106.805L108.185 37.0021L109.589 31.6861H111.017L112.361 36.9781L113.729 31.6861H115.073ZM118.495 38.4061C117.975 38.4061 117.507 38.3141 117.091 38.1301C116.683 37.9381 116.359 37.6821 116.119 37.3621C115.879 37.0341 115.751 36.6701 115.735 36.2701H117.151C117.175 36.5501 117.307 36.7861 117.547 36.9781C117.795 37.1621 118.103 37.2541 118.471 37.2541C118.855 37.2541 119.151 37.1821 119.359 37.0381C119.575 36.8861 119.683 36.6941 119.683 36.4621C119.683 36.2141 119.563 36.0301 119.323 35.9101C119.091 35.7901 118.719 35.6581 118.207 35.5141C117.711 35.3781 117.307 35.2461 116.995 35.1181C116.683 34.9901 116.411 34.7941 116.179 34.5301C115.955 34.2661 115.843 33.9181 115.843 33.4861C115.843 33.1341 115.947 32.8141 116.155 32.5261C116.363 32.2301 116.659 31.9981 117.043 31.8301C117.435 31.6621 117.883 31.5781 118.387 31.5781C119.139 31.5781 119.743 31.7701 120.199 32.1541C120.663 32.5301 120.911 33.0461 120.943 33.7021H119.575C119.551 33.4061 119.431 33.1701 119.215 32.9941C118.999 32.8181 118.707 32.7301 118.339 32.7301C117.979 32.7301 117.703 32.7981 117.511 32.9341C117.319 33.0701 117.223 33.2501 117.223 33.4741C117.223 33.6501 117.287 33.7981 117.415 33.9181C117.543 34.0381 117.699 34.1341 117.883 34.2061C118.067 34.2701 118.339 34.3541 118.699 34.4581C119.179 34.5861 119.571 34.7181 119.875 34.8541C120.187 34.9821 120.455 35.1741 120.679 35.4301C120.903 35.6861 121.019 36.0261 121.027 36.4501C121.027 36.8261 120.923 37.1621 120.715 37.4581C120.507 37.7541 120.211 37.9861 119.827 38.1541C119.451 38.3221 119.007 38.4061 118.495 38.4061Z" fill="#AEB9E1"/>
<path d="M48.1414 74.6903H40.3654V78.7943C40.7014 78.3783 41.1814 78.0423 41.8054 77.7863C42.4294 77.5143 43.0934 77.3783 43.7974 77.3783C45.0774 77.3783 46.1254 77.6583 46.9414 78.2183C47.7574 78.7783 48.3494 79.4983 48.7174 80.3783C49.0854 81.2423 49.2694 82.1703 49.2694 83.1623C49.2694 85.0023 48.7414 86.4823 47.6854 87.6023C46.6454 88.7223 45.1574 89.2823 43.2214 89.2823C41.3974 89.2823 39.9414 88.8263 38.8534 87.9143C37.7654 87.0023 37.1494 85.8103 37.0054 84.3383H40.2694C40.4134 84.9783 40.7334 85.4903 41.2294 85.8743C41.7414 86.2583 42.3894 86.4503 43.1734 86.4503C44.1174 86.4503 44.8294 86.1543 45.3094 85.5623C45.7894 84.9703 46.0294 84.1863 46.0294 83.2103C46.0294 82.2183 45.7814 81.4663 45.2854 80.9543C44.8054 80.4263 44.0934 80.1623 43.1494 80.1623C42.4774 80.1623 41.9174 80.3303 41.4694 80.6663C41.0214 81.0023 40.7014 81.4503 40.5094 82.0103H37.2934V71.7383H48.1414V74.6903ZM51.8267 80.3063C51.8267 77.5383 52.3227 75.3703 53.3147 73.8023C54.3227 72.2343 55.9867 71.4503 58.3067 71.4503C60.6267 71.4503 62.2827 72.2343 63.2747 73.8023C64.2827 75.3703 64.7867 77.5383 64.7867 80.3063C64.7867 83.0903 64.2827 85.2743 63.2747 86.8583C62.2827 88.4423 60.6267 89.2343 58.3067 89.2343C55.9867 89.2343 54.3227 88.4423 53.3147 86.8583C52.3227 85.2743 51.8267 83.0903 51.8267 80.3063ZM61.4747 80.3063C61.4747 79.1223 61.3947 78.1303 61.2347 77.3303C61.0907 76.5143 60.7867 75.8503 60.3227 75.3383C59.8747 74.8263 59.2027 74.5703 58.3067 74.5703C57.4107 74.5703 56.7307 74.8263 56.2667 75.3383C55.8187 75.8503 55.5147 76.5143 55.3547 77.3303C55.2107 78.1303 55.1387 79.1223 55.1387 80.3063C55.1387 81.5223 55.2107 82.5463 55.3547 83.3783C55.4987 84.1943 55.8027 84.8583 56.2667 85.3703C56.7307 85.8663 57.4107 86.1143 58.3067 86.1143C59.2027 86.1143 59.8827 85.8663 60.3467 85.3703C60.8107 84.8583 61.1147 84.1943 61.2587 83.3783C61.4027 82.5463 61.4747 81.5223 61.4747 80.3063ZM69.2143 89.4503C68.6063 89.4503 68.1023 89.2663 67.7023 88.8983C67.3183 88.5143 67.1263 88.0423 67.1263 87.4823C67.1263 86.9223 67.3183 86.4583 67.7023 86.0903C68.1023 85.7063 68.6063 85.5143 69.2143 85.5143C69.8063 85.5143 70.2943 85.7063 70.6783 86.0903C71.0623 86.4583 71.2543 86.9223 71.2543 87.4823C71.2543 88.0423 71.0623 88.5143 70.6783 88.8983C70.2943 89.2663 69.8063 89.4503 69.2143 89.4503ZM76.5047 80.0183C74.9047 79.1863 74.1047 77.8983 74.1047 76.1543C74.1047 75.2903 74.3207 74.5063 74.7527 73.8023C75.2007 73.0823 75.8647 72.5143 76.7447 72.0983C77.6407 71.6663 78.7287 71.4503 80.0087 71.4503C81.2887 71.4503 82.3687 71.6663 83.2487 72.0983C84.1447 72.5143 84.8087 73.0823 85.2407 73.8023C85.6887 74.5063 85.9127 75.2903 85.9127 76.1543C85.9127 77.0343 85.6967 77.8103 85.2647 78.4823C84.8327 79.1383 84.2567 79.6503 83.5367 80.0183C84.4167 80.4023 85.1047 80.9623 85.6007 81.6983C86.0967 82.4343 86.3447 83.3063 86.3447 84.3143C86.3447 85.4023 86.0647 86.3543 85.5047 87.1703C84.9607 87.9703 84.2087 88.5863 83.2487 89.0183C82.2887 89.4503 81.2087 89.6663 80.0087 89.6663C78.8087 89.6663 77.7287 89.4503 76.7687 89.0183C75.8247 88.5863 75.0727 87.9703 74.5127 87.1703C73.9687 86.3543 73.6967 85.4023 73.6967 84.3143C73.6967 83.3063 73.9447 82.4343 74.4407 81.6983C74.9367 80.9463 75.6247 80.3863 76.5047 80.0183ZM82.6487 76.6343C82.6487 75.8503 82.4087 75.2423 81.9287 74.8103C81.4647 74.3783 80.8247 74.1623 80.0087 74.1623C79.2087 74.1623 78.5687 74.3783 78.0887 74.8103C77.6247 75.2423 77.3927 75.8583 77.3927 76.6583C77.3927 77.3783 77.6327 77.9543 78.1127 78.3863C78.6087 78.8183 79.2407 79.0343 80.0087 79.0343C80.7767 79.0343 81.4087 78.8183 81.9047 78.3863C82.4007 77.9383 82.6487 77.3543 82.6487 76.6343ZM80.0087 81.4823C79.0967 81.4823 78.3527 81.7143 77.7767 82.1783C77.2167 82.6423 76.9367 83.3063 76.9367 84.1703C76.9367 84.9703 77.2087 85.6263 77.7527 86.1383C78.3127 86.6343 79.0647 86.8823 80.0087 86.8823C80.9527 86.8823 81.6967 86.6263 82.2407 86.1143C82.7847 85.6023 83.0567 84.9543 83.0567 84.1703C83.0567 83.3223 82.7767 82.6663 82.2167 82.2023C81.6567 81.7223 80.9207 81.4823 80.0087 81.4823ZM98.8386 89.2823L92.7426 81.8183V89.2823H89.3826V72.5303H92.7426V80.0423L98.8386 72.5303H102.895L95.9826 80.8343L103.087 89.2823H98.8386Z" fill="white"/>
<rect x="120.109" y="72.2823" width="47" height="18" rx="2" fill="#05C168" fill-opacity="0.2"/>
<rect x="120.409" y="72.5823" width="46.4" height="17.4" rx="1.7" stroke="#05C168" stroke-opacity="0.2" stroke-width="0.6"/>
<path d="M125.339 83.7323C125.979 83.179 126.483 82.7256 126.849 82.3723C127.223 82.0123 127.533 81.639 127.779 81.2523C128.026 80.8656 128.149 80.479 128.149 80.0923C128.149 79.6923 128.053 79.379 127.859 79.1523C127.673 78.9256 127.376 78.8123 126.969 78.8123C126.576 78.8123 126.269 78.939 126.049 79.1923C125.836 79.439 125.723 79.7723 125.709 80.1923H124.609C124.629 79.4323 124.856 78.8523 125.289 78.4523C125.729 78.0456 126.286 77.8423 126.959 77.8423C127.686 77.8423 128.253 78.0423 128.659 78.4423C129.073 78.8423 129.279 79.3756 129.279 80.0423C129.279 80.5223 129.156 80.9856 128.909 81.4323C128.669 81.8723 128.379 82.269 128.039 82.6223C127.706 82.969 127.279 83.3723 126.759 83.8323L126.309 84.2323H129.479V85.1823H124.619V84.3523L125.339 83.7323ZM131.711 81.4723C131.018 81.1256 130.671 80.579 130.671 79.8323C130.671 79.4723 130.761 79.1423 130.941 78.8423C131.121 78.5423 131.391 78.3056 131.751 78.1323C132.111 77.9523 132.551 77.8623 133.071 77.8623C133.584 77.8623 134.021 77.9523 134.381 78.1323C134.748 78.3056 135.021 78.5423 135.201 78.8423C135.381 79.1423 135.471 79.4723 135.471 79.8323C135.471 80.2056 135.374 80.5356 135.181 80.8223C134.994 81.1023 134.744 81.319 134.431 81.4723C134.811 81.6123 135.111 81.8423 135.331 82.1623C135.551 82.4756 135.661 82.8456 135.661 83.2723C135.661 83.7056 135.551 84.089 135.331 84.4223C135.111 84.7556 134.804 85.0123 134.411 85.1923C134.018 85.3723 133.571 85.4623 133.071 85.4623C132.571 85.4623 132.124 85.3723 131.731 85.1923C131.344 85.0123 131.041 84.7556 130.821 84.4223C130.601 84.089 130.491 83.7056 130.491 83.2723C130.491 82.839 130.601 82.4656 130.821 82.1523C131.041 81.839 131.338 81.6123 131.711 81.4723ZM134.381 79.9723C134.381 79.599 134.264 79.3123 134.031 79.1123C133.798 78.9123 133.478 78.8123 133.071 78.8123C132.671 78.8123 132.354 78.9123 132.121 79.1123C131.888 79.3123 131.771 79.6023 131.771 79.9823C131.771 80.3156 131.891 80.589 132.131 80.8023C132.378 81.009 132.691 81.1123 133.071 81.1123C133.451 81.1123 133.764 81.0056 134.011 80.7923C134.258 80.579 134.381 80.3056 134.381 79.9723ZM133.071 81.9723C132.631 81.9723 132.271 82.0823 131.991 82.3023C131.718 82.5156 131.581 82.8256 131.581 83.2323C131.581 83.6123 131.714 83.9223 131.981 84.1623C132.248 84.3956 132.611 84.5123 133.071 84.5123C133.524 84.5123 133.881 84.3923 134.141 84.1523C134.408 83.9123 134.541 83.6056 134.541 83.2323C134.541 82.8323 134.404 82.5223 134.131 82.3023C133.864 82.0823 133.511 81.9723 133.071 81.9723ZM137.468 85.3523C137.261 85.3523 137.088 85.2823 136.948 85.1423C136.808 85.0023 136.738 84.829 136.738 84.6223C136.738 84.4156 136.808 84.2423 136.948 84.1023C137.088 83.9623 137.261 83.8923 137.468 83.8923C137.668 83.8923 137.838 83.9623 137.978 84.1023C138.118 84.2423 138.188 84.4156 138.188 84.6223C138.188 84.829 138.118 85.0023 137.978 85.1423C137.838 85.2823 137.668 85.3523 137.468 85.3523ZM139.13 83.7623V82.9023L142.49 78.0823H143.87V82.7723H144.8V83.7623H143.87V85.2823H142.75V83.7623H139.13ZM142.8 79.2423L140.44 82.7723H142.8V79.2423ZM145.565 79.7523C145.565 79.2656 145.705 78.8856 145.985 78.6123C146.271 78.3323 146.638 78.1923 147.085 78.1923C147.531 78.1923 147.895 78.3323 148.175 78.6123C148.461 78.8856 148.605 79.2656 148.605 79.7523C148.605 80.239 148.461 80.6223 148.175 80.9023C147.895 81.1823 147.531 81.3223 147.085 81.3223C146.638 81.3223 146.271 81.1823 145.985 80.9023C145.705 80.6223 145.565 80.239 145.565 79.7523ZM151.665 78.3223L147.675 85.2823H146.555L150.545 78.3223H151.665ZM147.085 78.8823C146.665 78.8823 146.455 79.1723 146.455 79.7523C146.455 80.339 146.665 80.6323 147.085 80.6323C147.285 80.6323 147.438 80.5623 147.545 80.4223C147.658 80.2756 147.715 80.0523 147.715 79.7523C147.715 79.1723 147.505 78.8823 147.085 78.8823ZM149.635 83.8423C149.635 83.3556 149.775 82.9756 150.055 82.7023C150.341 82.4223 150.708 82.2823 151.155 82.2823C151.595 82.2823 151.955 82.4223 152.235 82.7023C152.521 82.9756 152.665 83.3556 152.665 83.8423C152.665 84.329 152.521 84.7123 152.235 84.9923C151.955 85.2723 151.595 85.4123 151.155 85.4123C150.708 85.4123 150.341 85.2723 150.055 84.9923C149.775 84.7123 149.635 84.329 149.635 83.8423ZM151.145 82.9723C150.725 82.9723 150.515 83.2623 150.515 83.8423C150.515 84.4223 150.725 84.7123 151.145 84.7123C151.565 84.7123 151.775 84.4223 151.775 83.8423C151.775 83.2623 151.565 82.9723 151.145 82.9723Z" fill="#14CA74"/>
<path d="M156.443 83.9489L161.776 78.6156" stroke="#14CA74" stroke-width="0.8" stroke-linecap="round" stroke-linejoin="round"/>
<path d="M161.776 83.6439V78.6156H156.748" stroke="#14CA74" stroke-width="0.8" stroke-linecap="round" stroke-linejoin="round"/>
<path d="M395 35.9142C395.759 35.9142 396.375 35.267 396.375 34.4686C396.375 33.6702 395.759 33.023 395 33.023C394.24 33.023 393.624 33.6702 393.624 34.4686C393.624 35.267 394.24 35.9142 395 35.9142Z" fill="#D9E1FA"/>
<path d="M401.499 35.9142C402.259 35.9142 402.875 35.267 402.875 34.4686C402.875 33.6702 402.259 33.023 401.499 33.023C400.739 33.023 400.123 33.6702 400.123 34.4686C400.123 35.267 400.739 35.9142 401.499 35.9142Z" fill="#D9E1FA"/>
<path d="M388.5 35.9142C389.26 35.9142 389.876 35.267 389.876 34.4686C389.876 33.6702 389.26 33.023 388.5 33.023C387.74 33.023 387.125 33.6702 387.125 34.4686C387.125 35.267 387.74 35.9142 388.5 35.9142Z" fill="#D9E1FA"/>
<rect x="0.3" y="153.55" width="439.4" height="120.65" rx="7.7" fill="#1D1D1D" stroke="#343B4F" stroke-width="0.6"/>
<path d="M35.3791 191.085C35.3791 189.246 36.8692 187.756 38.7073 187.756H42.4333C44.2715 187.756 45.7615 189.246 45.7615 191.085C45.7615 191.697 45.2648 192.194 44.6521 192.194H36.4885C35.8758 192.194 35.3791 191.697 35.3791 191.085Z" fill="#AEB9E1"/>
<path d="M40.5723 186.911C42.2062 186.911 43.5307 185.586 43.5307 183.952C43.5307 182.319 42.2062 180.994 40.5723 180.994C38.9384 180.994 37.6139 182.319 37.6139 183.952C37.6139 185.586 38.9384 186.911 40.5723 186.911Z" fill="#AEB9E1"/>
<path d="M64.2543 182.254V190.594H62.8863V184.882L60.3423 190.594H59.3943L56.8383 184.882V190.594H55.4703V182.254H56.9463L59.8743 188.794L62.7903 182.254H64.2543ZM68.9203 190.702C68.2963 190.702 67.7323 190.562 67.2283 190.282C66.7243 189.994 66.3283 189.594 66.0403 189.082C65.7523 188.562 65.6083 187.962 65.6083 187.282C65.6083 186.61 65.7563 186.014 66.0523 185.494C66.3483 184.974 66.7523 184.574 67.2643 184.294C67.7763 184.014 68.3483 183.874 68.9803 183.874C69.6123 183.874 70.1843 184.014 70.6963 184.294C71.2083 184.574 71.6123 184.974 71.9083 185.494C72.2043 186.014 72.3523 186.61 72.3523 187.282C72.3523 187.954 72.2003 188.55 71.8963 189.07C71.5923 189.59 71.1763 189.994 70.6483 190.282C70.1283 190.562 69.5523 190.702 68.9203 190.702ZM68.9203 189.514C69.2723 189.514 69.6003 189.43 69.9043 189.262C70.2163 189.094 70.4683 188.842 70.6603 188.506C70.8523 188.17 70.9483 187.762 70.9483 187.282C70.9483 186.802 70.8563 186.398 70.6723 186.07C70.4883 185.734 70.2443 185.482 69.9403 185.314C69.6363 185.146 69.3083 185.062 68.9563 185.062C68.6043 185.062 68.2763 185.146 67.9723 185.314C67.6763 185.482 67.4403 185.734 67.2643 186.07C67.0883 186.398 67.0003 186.802 67.0003 187.282C67.0003 187.994 67.1803 188.546 67.5403 188.938C67.9083 189.322 68.3683 189.514 68.9203 189.514ZM77.0407 183.874C77.5607 183.874 78.0247 183.982 78.4327 184.198C78.8487 184.414 79.1727 184.734 79.4047 185.158C79.6367 185.582 79.7527 186.094 79.7527 186.694V190.594H78.3967V186.898C78.3967 186.306 78.2487 185.854 77.9527 185.542C77.6567 185.222 77.2527 185.062 76.7407 185.062C76.2287 185.062 75.8207 185.222 75.5167 185.542C75.2207 185.854 75.0727 186.306 75.0727 186.898V190.594H73.7047V183.982H75.0727V184.738C75.2967 184.466 75.5807 184.254 75.9247 184.102C76.2767 183.95 76.6487 183.874 77.0407 183.874ZM83.0937 185.098V188.758C83.0937 189.006 83.1497 189.186 83.2617 189.298C83.3817 189.402 83.5817 189.454 83.8617 189.454H84.7017V190.594H83.6217C83.0057 190.594 82.5337 190.45 82.2057 190.162C81.8777 189.874 81.7137 189.406 81.7137 188.758V185.098H80.9337V183.982H81.7137V182.338H83.0937V183.982H84.7017V185.098H83.0937ZM89.3825 183.874C89.8865 183.874 90.3345 183.982 90.7265 184.198C91.1265 184.414 91.4385 184.734 91.6625 185.158C91.8945 185.582 92.0105 186.094 92.0105 186.694V190.594H90.6545V186.898C90.6545 186.306 90.5065 185.854 90.2105 185.542C89.9145 185.222 89.5105 185.062 88.9985 185.062C88.4865 185.062 88.0785 185.222 87.7745 185.542C87.4785 185.854 87.3305 186.306 87.3305 186.898V190.594H85.9625V181.714H87.3305V184.75C87.5625 184.47 87.8545 184.254 88.2065 184.102C88.5665 183.95 88.9585 183.874 89.3825 183.874ZM95.1235 181.714V190.594H93.7555V181.714H95.1235ZM102.872 183.982L98.8155 193.702H97.3995L98.7435 190.486L96.1395 183.982H97.6635L99.5235 189.022L101.456 183.982H102.872ZM113.009 183.982V190.594H111.641V189.814C111.425 190.086 111.141 190.302 110.789 190.462C110.445 190.614 110.077 190.69 109.685 190.69C109.165 190.69 108.697 190.582 108.281 190.366C107.873 190.15 107.549 189.83 107.309 189.406C107.077 188.982 106.961 188.47 106.961 187.87V183.982H108.317V187.666C108.317 188.258 108.465 188.714 108.761 189.034C109.057 189.346 109.461 189.502 109.973 189.502C110.485 189.502 110.889 189.346 111.185 189.034C111.489 188.714 111.641 188.258 111.641 187.666V183.982H113.009ZM117.214 190.702C116.694 190.702 116.226 190.61 115.81 190.426C115.402 190.234 115.078 189.978 114.838 189.658C114.598 189.33 114.47 188.966 114.454 188.566H115.87C115.894 188.846 116.026 189.082 116.266 189.274C116.514 189.458 116.822 189.55 117.19 189.55C117.574 189.55 117.87 189.478 118.078 189.334C118.294 189.182 118.402 188.99 118.402 188.758C118.402 188.51 118.282 188.326 118.042 188.206C117.81 188.086 117.438 187.954 116.926 187.81C116.43 187.674 116.026 187.542 115.714 187.414C115.402 187.286 115.13 187.09 114.898 186.826C114.674 186.562 114.562 186.214 114.562 185.782C114.562 185.43 114.666 185.11 114.874 184.822C115.082 184.526 115.378 184.294 115.762 184.126C116.154 183.958 116.602 183.874 117.106 183.874C117.858 183.874 118.462 184.066 118.918 184.45C119.382 184.826 119.63 185.342 119.662 185.998H118.294C118.27 185.702 118.15 185.466 117.934 185.29C117.718 185.114 117.426 185.026 117.058 185.026C116.698 185.026 116.422 185.094 116.23 185.23C116.038 185.366 115.942 185.546 115.942 185.77C115.942 185.946 116.006 186.094 116.134 186.214C116.262 186.334 116.418 186.43 116.602 186.502C116.786 186.566 117.058 186.65 117.418 186.754C117.898 186.882 118.29 187.014 118.594 187.15C118.906 187.278 119.174 187.47 119.398 187.726C119.622 187.982 119.738 188.322 119.746 188.746C119.746 189.122 119.642 189.458 119.434 189.754C119.226 190.05 118.93 190.282 118.546 190.45C118.17 190.618 117.726 190.702 117.214 190.702ZM127.284 187.126C127.284 187.374 127.268 187.598 127.236 187.798H122.184C122.224 188.326 122.42 188.75 122.772 189.07C123.124 189.39 123.556 189.55 124.068 189.55C124.804 189.55 125.324 189.242 125.628 188.626H127.104C126.904 189.234 126.54 189.734 126.012 190.126C125.492 190.51 124.844 190.702 124.068 190.702C123.436 190.702 122.868 190.562 122.364 190.282C121.868 189.994 121.476 189.594 121.188 189.082C120.908 188.562 120.768 187.962 120.768 187.282C120.768 186.602 120.904 186.006 121.176 185.494C121.456 184.974 121.844 184.574 122.34 184.294C122.844 184.014 123.42 183.874 124.068 183.874C124.692 183.874 125.248 184.01 125.736 184.282C126.224 184.554 126.604 184.938 126.876 185.434C127.148 185.922 127.284 186.486 127.284 187.126ZM125.856 186.694C125.848 186.19 125.668 185.786 125.316 185.482C124.964 185.178 124.528 185.026 124.008 185.026C123.536 185.026 123.132 185.178 122.796 185.482C122.46 185.778 122.26 186.182 122.196 186.694H125.856ZM129.998 184.942C130.198 184.606 130.462 184.346 130.79 184.162C131.126 183.97 131.522 183.874 131.978 183.874V185.29H131.63C131.094 185.29 130.686 185.426 130.406 185.698C130.134 185.97 129.998 186.442 129.998 187.114V190.594H128.63V183.982H129.998V184.942ZM135.636 190.702C135.116 190.702 134.648 190.61 134.232 190.426C133.824 190.234 133.5 189.978 133.26 189.658C133.02 189.33 132.892 188.966 132.876 188.566H134.292C134.316 188.846 134.448 189.082 134.688 189.274C134.936 189.458 135.244 189.55 135.612 189.55C135.996 189.55 136.292 189.478 136.5 189.334C136.716 189.182 136.824 188.99 136.824 188.758C136.824 188.51 136.704 188.326 136.464 188.206C136.232 188.086 135.86 187.954 135.348 187.81C134.852 187.674 134.448 187.542 134.136 187.414C133.824 187.286 133.552 187.09 133.32 186.826C133.096 186.562 132.984 186.214 132.984 185.782C132.984 185.43 133.088 185.11 133.296 184.822C133.504 184.526 133.8 184.294 134.184 184.126C134.576 183.958 135.024 183.874 135.528 183.874C136.28 183.874 136.884 184.066 137.34 184.45C137.804 184.826 138.052 185.342 138.084 185.998H136.716C136.692 185.702 136.572 185.466 136.356 185.29C136.14 185.114 135.848 185.026 135.48 185.026C135.12 185.026 134.844 185.094 134.652 185.23C134.46 185.366 134.364 185.546 134.364 185.77C134.364 185.946 134.428 186.094 134.556 186.214C134.684 186.334 134.84 186.43 135.024 186.502C135.208 186.566 135.48 186.65 135.84 186.754C136.32 186.882 136.712 187.014 137.016 187.15C137.328 187.278 137.596 187.47 137.82 187.726C138.044 187.982 138.16 188.322 138.168 188.746C138.168 189.122 138.064 189.458 137.856 189.754C137.648 190.05 137.352 190.282 136.968 190.45C136.592 190.618 136.148 190.702 135.636 190.702Z" fill="#AEB9E1"/>
<path d="M37.4491 237.938C38.9851 236.658 40.2091 235.594 41.1211 234.746C42.0331 233.882 42.7931 232.986 43.4011 232.058C44.0091 231.13 44.3131 230.218 44.3131 229.322C44.3131 228.506 44.1211 227.866 43.7371 227.402C43.3531 226.938 42.7611 226.706 41.9611 226.706C41.1611 226.706 40.5451 226.978 40.1131 227.522C39.6811 228.05 39.4571 228.778 39.4411 229.706H36.1771C36.2411 227.786 36.8091 226.33 37.8811 225.338C38.9691 224.346 40.3451 223.85 42.0091 223.85C43.8331 223.85 45.2331 224.338 46.2091 225.314C47.1851 226.274 47.6731 227.546 47.6731 229.13C47.6731 230.378 47.3371 231.57 46.6651 232.706C45.9931 233.842 45.2251 234.834 44.3611 235.682C43.4971 236.514 42.3691 237.522 40.9771 238.706H48.0571V241.49H36.2011V238.994L37.4491 237.938ZM50.2223 228.842C50.3023 227.242 50.8623 226.01 51.9023 225.146C52.9583 224.266 54.3423 223.826 56.0543 223.826C57.2223 223.826 58.2223 224.034 59.0543 224.45C59.8863 224.85 60.5103 225.402 60.9263 226.106C61.3583 226.794 61.5743 227.578 61.5743 228.458C61.5743 229.466 61.3103 230.322 60.7823 231.026C60.2703 231.714 59.6543 232.178 58.9343 232.418V232.514C59.8623 232.802 60.5823 233.314 61.0943 234.05C61.6223 234.786 61.8863 235.73 61.8863 236.882C61.8863 237.842 61.6623 238.698 61.2143 239.45C60.7823 240.202 60.1343 240.794 59.2703 241.226C58.4223 241.642 57.3983 241.85 56.1983 241.85C54.3903 241.85 52.9183 241.394 51.7823 240.482C50.6463 239.57 50.0463 238.226 49.9823 236.45H53.2463C53.2783 237.234 53.5423 237.866 54.0383 238.346C54.5503 238.81 55.2463 239.042 56.1263 239.042C56.9423 239.042 57.5663 238.818 57.9983 238.37C58.4463 237.906 58.6703 237.314 58.6703 236.594C58.6703 235.634 58.3663 234.946 57.7583 234.53C57.1503 234.114 56.2063 233.906 54.9263 233.906H54.2303V231.146H54.9263C57.1983 231.146 58.3343 230.386 58.3343 228.866C58.3343 228.178 58.1263 227.642 57.7103 227.258C57.3103 226.874 56.7263 226.682 55.9583 226.682C55.2063 226.682 54.6223 226.89 54.2063 227.306C53.8063 227.706 53.5743 228.218 53.5103 228.842H50.2223ZM66.4135 241.898C65.8055 241.898 65.3015 241.714 64.9015 241.346C64.5175 240.962 64.3255 240.49 64.3255 239.93C64.3255 239.37 64.5175 238.906 64.9015 238.538C65.3015 238.154 65.8055 237.962 66.4135 237.962C67.0055 237.962 67.4935 238.154 67.8775 238.538C68.2615 238.906 68.4535 239.37 68.4535 239.93C68.4535 240.49 68.2615 240.962 67.8775 241.346C67.4935 241.714 67.0055 241.898 66.4135 241.898ZM79.8479 228.602C79.6879 227.93 79.4079 227.426 79.0079 227.09C78.6239 226.754 78.0639 226.586 77.3279 226.586C76.2239 226.586 75.4079 227.034 74.8799 227.93C74.3679 228.81 74.1039 230.25 74.0879 232.25C74.4719 231.61 75.0319 231.114 75.7679 230.762C76.5039 230.394 77.3039 230.21 78.1679 230.21C79.2079 230.21 80.1279 230.434 80.9279 230.882C81.7279 231.33 82.3519 231.986 82.7999 232.85C83.2479 233.698 83.4719 234.722 83.4719 235.922C83.4719 237.058 83.2399 238.074 82.7759 238.97C82.3279 239.85 81.6639 240.538 80.7839 241.034C79.9039 241.53 78.8559 241.778 77.6399 241.778C75.9759 241.778 74.6639 241.41 73.7039 240.674C72.7599 239.938 72.0959 238.914 71.7119 237.602C71.3439 236.274 71.1599 234.642 71.1599 232.706C71.1599 229.778 71.6639 227.57 72.6719 226.082C73.6799 224.578 75.2719 223.826 77.4479 223.826C79.1279 223.826 80.4319 224.282 81.3599 225.194C82.2879 226.106 82.8239 227.242 82.9679 228.602H79.8479ZM77.3999 232.97C76.5519 232.97 75.8399 233.218 75.2639 233.714C74.6879 234.21 74.3999 234.93 74.3999 235.874C74.3999 236.818 74.6639 237.562 75.1919 238.106C75.7359 238.65 76.4959 238.922 77.4719 238.922C78.3359 238.922 79.0159 238.658 79.5119 238.13C80.0239 237.602 80.2799 236.89 80.2799 235.994C80.2799 235.066 80.0319 234.33 79.5359 233.786C79.0559 233.242 78.3439 232.97 77.3999 232.97ZM95.9675 241.73L89.8715 234.266V241.73H86.5115V224.978H89.8715V232.49L95.9675 224.978H100.023L93.1115 233.282L100.215 241.73H95.9675Z" fill="white"/>
<rect x="113.121" y="224.73" width="45" height="18" rx="2" fill="#FF5A65" fill-opacity="0.2"/>
<rect x="113.421" y="225.03" width="44.4" height="17.4" rx="1.7" stroke="#FF5A65" stroke-opacity="0.2" stroke-width="0.6"/>
<path d="M117.571 231.48V230.44H119.651V237.73H118.501V231.48H117.571ZM121.847 236.18C122.487 235.626 122.991 235.173 123.357 234.82C123.731 234.46 124.041 234.086 124.287 233.7C124.534 233.313 124.657 232.926 124.657 232.54C124.657 232.14 124.561 231.826 124.367 231.6C124.181 231.373 123.884 231.26 123.477 231.26C123.084 231.26 122.777 231.386 122.557 231.64C122.344 231.886 122.231 232.22 122.217 232.64H121.117C121.137 231.88 121.364 231.3 121.797 230.9C122.237 230.493 122.794 230.29 123.467 230.29C124.194 230.29 124.761 230.49 125.167 230.89C125.581 231.29 125.787 231.823 125.787 232.49C125.787 232.97 125.664 233.433 125.417 233.88C125.177 234.32 124.887 234.716 124.547 235.07C124.214 235.416 123.787 235.82 123.267 236.28L122.817 236.68H125.987V237.63H121.127V236.8L121.847 236.18ZM127.599 237.8C127.392 237.8 127.219 237.73 127.079 237.59C126.939 237.45 126.869 237.276 126.869 237.07C126.869 236.863 126.939 236.69 127.079 236.55C127.219 236.41 127.392 236.34 127.599 236.34C127.799 236.34 127.969 236.41 128.109 236.55C128.249 236.69 128.319 236.863 128.319 237.07C128.319 237.276 128.249 237.45 128.109 237.59C127.969 237.73 127.799 237.8 127.599 237.8ZM133.321 232.13C133.247 231.823 133.114 231.593 132.921 231.44C132.727 231.286 132.457 231.21 132.111 231.21C131.584 231.21 131.191 231.413 130.931 231.82C130.671 232.22 130.534 232.886 130.521 233.82C130.694 233.526 130.947 233.3 131.281 233.14C131.614 232.98 131.974 232.9 132.361 232.9C132.801 232.9 133.187 232.996 133.521 233.19C133.861 233.376 134.124 233.65 134.311 234.01C134.504 234.37 134.601 234.8 134.601 235.3C134.601 235.766 134.507 236.183 134.321 236.55C134.141 236.916 133.871 237.206 133.511 237.42C133.151 237.626 132.717 237.73 132.211 237.73C131.524 237.73 130.984 237.58 130.591 237.28C130.204 236.973 129.931 236.543 129.771 235.99C129.617 235.436 129.541 234.746 129.541 233.92C129.541 231.48 130.401 230.26 132.121 230.26C132.787 230.26 133.311 230.44 133.691 230.8C134.077 231.16 134.304 231.603 134.371 232.13H133.321ZM132.111 233.86C131.704 233.86 131.357 233.983 131.071 234.23C130.791 234.47 130.651 234.82 130.651 235.28C130.651 235.74 130.781 236.106 131.041 236.38C131.307 236.646 131.677 236.78 132.151 236.78C132.571 236.78 132.901 236.65 133.141 236.39C133.387 236.13 133.511 235.783 133.511 235.35C133.511 234.896 133.391 234.536 133.151 234.27C132.917 233.996 132.571 233.86 132.111 233.86ZM135.637 232.2C135.637 231.713 135.777 231.333 136.057 231.06C136.343 230.78 136.71 230.64 137.157 230.64C137.603 230.64 137.967 230.78 138.247 231.06C138.533 231.333 138.677 231.713 138.677 232.2C138.677 232.686 138.533 233.07 138.247 233.35C137.967 233.63 137.603 233.77 137.157 233.77C136.71 233.77 136.343 233.63 136.057 233.35C135.777 233.07 135.637 232.686 135.637 232.2ZM141.737 230.77L137.747 237.73H136.627L140.617 230.77H141.737ZM137.157 231.33C136.737 231.33 136.527 231.62 136.527 232.2C136.527 232.786 136.737 233.08 137.157 233.08C137.357 233.08 137.51 233.01 137.617 232.87C137.73 232.723 137.787 232.5 137.787 232.2C137.787 231.62 137.577 231.33 137.157 231.33ZM139.707 236.29C139.707 235.803 139.847 235.423 140.127 235.15C140.413 234.87 140.78 234.73 141.227 234.73C141.667 234.73 142.027 234.87 142.307 235.15C142.593 235.423 142.737 235.803 142.737 236.29C142.737 236.776 142.593 237.16 142.307 237.44C142.027 237.72 141.667 237.86 141.227 237.86C140.78 237.86 140.413 237.72 140.127 237.44C139.847 237.16 139.707 236.776 139.707 236.29ZM141.217 235.42C140.797 235.42 140.587 235.71 140.587 236.29C140.587 236.87 140.797 237.16 141.217 237.16C141.637 237.16 141.847 236.87 141.847 236.29C141.847 235.71 141.637 235.42 141.217 235.42Z" fill="#FF5A65"/>
<path d="M147.454 231.063L152.788 236.396" stroke="#FF5A65" stroke-width="0.8" stroke-linecap="round" stroke-linejoin="round"/>
<path d="M147.759 236.396L152.788 236.396L152.788 231.368" stroke="#FF5A65" stroke-width="0.8" stroke-linecap="round" stroke-linejoin="round"/>
<path d="M385.009 188.099C385.769 188.099 386.385 187.451 386.385 186.653C386.385 185.855 385.769 185.207 385.009 185.207C384.25 185.207 383.634 185.855 383.634 186.653C383.634 187.451 384.25 188.099 385.009 188.099Z" fill="#D9E1FA"/>
<path d="M391.509 188.099C392.268 188.099 392.884 187.451 392.884 186.653C392.884 185.855 392.268 185.207 391.509 185.207C390.749 185.207 390.133 185.855 390.133 186.653C390.133 187.451 390.749 188.099 391.509 188.099Z" fill="#D9E1FA"/>
<path d="M378.51 188.099C379.27 188.099 379.885 187.451 379.885 186.653C379.885 185.855 379.27 185.207 378.51 185.207C377.75 185.207 377.134 185.855 377.134 186.653C377.134 187.451 377.75 188.099 378.51 188.099Z" fill="#D9E1FA"/>
<rect x="0.3" y="306.8" width="439.4" height="120.65" rx="7.7" fill="#1D1D1D" stroke="#343B4F" stroke-width="0.6"/>
<path fill-rule="evenodd" clip-rule="evenodd" d="M47.125 340.45C47.125 343.764 44.4387 346.45 41.125 346.45C37.8113 346.45 35.125 343.764 35.125 340.45C35.125 337.136 37.8113 334.45 41.125 334.45C44.4387 334.45 47.125 337.136 47.125 340.45ZM41.1265 337.021C41.4496 337.021 41.7115 337.283 41.7115 337.606V339.866H43.9678C44.2908 339.866 44.5527 340.128 44.5527 340.451C44.5527 340.774 44.2908 341.036 43.9678 341.036H41.7115V343.294C41.7115 343.617 41.4496 343.879 41.1265 343.879C40.8035 343.879 40.5416 343.617 40.5416 343.294V341.036H38.2806C37.9575 341.036 37.6956 340.774 37.6956 340.451C37.6956 340.128 37.9575 339.866 38.2806 339.866H40.5416V337.606C40.5416 337.283 40.8035 337.021 41.1265 337.021Z" fill="#AEB9E1"/>
<path d="M62.877 344.45H61.509L57.393 338.222V344.45H56.025V336.098H57.393L61.509 342.314V336.098H62.877V344.45ZM70.7334 340.982C70.7334 341.23 70.7174 341.454 70.6854 341.654H65.6334C65.6734 342.182 65.8694 342.606 66.2214 342.926C66.5734 343.246 67.0054 343.406 67.5174 343.406C68.2534 343.406 68.7734 343.098 69.0774 342.482H70.5534C70.3534 343.09 69.9894 343.59 69.4614 343.982C68.9414 344.366 68.2934 344.558 67.5174 344.558C66.8854 344.558 66.3174 344.418 65.8134 344.138C65.3174 343.85 64.9254 343.45 64.6374 342.938C64.3574 342.418 64.2174 341.818 64.2174 341.138C64.2174 340.458 64.3534 339.862 64.6254 339.35C64.9054 338.83 65.2934 338.43 65.7894 338.15C66.2934 337.87 66.8694 337.73 67.5174 337.73C68.1414 337.73 68.6974 337.866 69.1854 338.138C69.6734 338.41 70.0534 338.794 70.3254 339.29C70.5974 339.778 70.7334 340.342 70.7334 340.982ZM69.3054 340.55C69.2974 340.046 69.1174 339.642 68.7654 339.338C68.4134 339.034 67.9774 338.882 67.4574 338.882C66.9854 338.882 66.5814 339.034 66.2454 339.338C65.9094 339.634 65.7094 340.038 65.6454 340.55H69.3054ZM80.9597 337.838L78.9077 344.45H77.4677L76.1357 339.566L74.8037 344.45H73.3637L71.2997 337.838H72.6917L74.0717 343.154L75.4757 337.838H76.9037L78.2477 343.13L79.6157 337.838H80.9597ZM87.4992 344.558C86.9792 344.558 86.5112 344.466 86.0952 344.282C85.6872 344.09 85.3632 343.834 85.1232 343.514C84.8832 343.186 84.7552 342.822 84.7392 342.422H86.1552C86.1792 342.702 86.3112 342.938 86.5512 343.13C86.7992 343.314 87.1072 343.406 87.4752 343.406C87.8592 343.406 88.1552 343.334 88.3632 343.19C88.5792 343.038 88.6872 342.846 88.6872 342.614C88.6872 342.366 88.5672 342.182 88.3272 342.062C88.0952 341.942 87.7232 341.81 87.2112 341.666C86.7152 341.53 86.3112 341.398 85.9992 341.27C85.6872 341.142 85.4152 340.946 85.1832 340.682C84.9592 340.418 84.8472 340.07 84.8472 339.638C84.8472 339.286 84.9512 338.966 85.1592 338.678C85.3672 338.382 85.6632 338.15 86.0472 337.982C86.4392 337.814 86.8872 337.73 87.3912 337.73C88.1432 337.73 88.7472 337.922 89.2032 338.306C89.6672 338.682 89.9152 339.198 89.9472 339.854H88.5792C88.5552 339.558 88.4352 339.322 88.2192 339.146C88.0032 338.97 87.7112 338.882 87.3432 338.882C86.9832 338.882 86.7072 338.95 86.5152 339.086C86.3232 339.222 86.2272 339.402 86.2272 339.626C86.2272 339.802 86.2912 339.95 86.4192 340.07C86.5472 340.19 86.7032 340.286 86.8872 340.358C87.0712 340.422 87.3432 340.506 87.7032 340.61C88.1832 340.738 88.5752 340.87 88.8792 341.006C89.1912 341.134 89.4592 341.326 89.6832 341.582C89.9072 341.838 90.0232 342.178 90.0312 342.602C90.0312 342.978 89.9272 343.314 89.7192 343.61C89.5112 343.906 89.2152 344.138 88.8312 344.306C88.4552 344.474 88.0112 344.558 87.4992 344.558ZM92.2054 336.962C91.9574 336.962 91.7494 336.878 91.5814 336.71C91.4134 336.542 91.3294 336.334 91.3294 336.086C91.3294 335.838 91.4134 335.63 91.5814 335.462C91.7494 335.294 91.9574 335.21 92.2054 335.21C92.4454 335.21 92.6494 335.294 92.8174 335.462C92.9854 335.63 93.0694 335.838 93.0694 336.086C93.0694 336.334 92.9854 336.542 92.8174 336.71C92.6494 336.878 92.4454 336.962 92.2054 336.962ZM92.8774 337.838V344.45H91.5094V337.838H92.8774ZM97.3374 337.73C97.8494 337.73 98.3014 337.834 98.6934 338.042C99.0934 338.242 99.4054 338.494 99.6294 338.798V337.838H101.009V344.558C101.009 345.166 100.881 345.706 100.625 346.178C100.369 346.658 99.9974 347.034 99.5094 347.306C99.0294 347.578 98.4534 347.714 97.7814 347.714C96.8854 347.714 96.1414 347.502 95.5494 347.078C94.9574 346.662 94.6214 346.094 94.5414 345.374H95.8974C96.0014 345.718 96.2214 345.994 96.5574 346.202C96.9014 346.418 97.3094 346.526 97.7814 346.526C98.3334 346.526 98.7774 346.358 99.1134 346.022C99.4574 345.686 99.6294 345.198 99.6294 344.558V343.454C99.3974 343.766 99.0814 344.03 98.6814 344.246C98.2894 344.454 97.8414 344.558 97.3374 344.558C96.7614 344.558 96.2334 344.414 95.7534 344.126C95.2814 343.83 94.9054 343.422 94.6254 342.902C94.3534 342.374 94.2174 341.778 94.2174 341.114C94.2174 340.45 94.3534 339.862 94.6254 339.35C94.9054 338.838 95.2814 338.442 95.7534 338.162C96.2334 337.874 96.7614 337.73 97.3374 337.73ZM99.6294 341.138C99.6294 340.682 99.5334 340.286 99.3414 339.95C99.1574 339.614 98.9134 339.358 98.6094 339.182C98.3054 339.006 97.9774 338.918 97.6254 338.918C97.2734 338.918 96.9454 339.006 96.6414 339.182C96.3374 339.35 96.0894 339.602 95.8974 339.938C95.7134 340.266 95.6214 340.658 95.6214 341.114C95.6214 341.57 95.7134 341.97 95.8974 342.314C96.0894 342.658 96.3374 342.922 96.6414 343.106C96.9534 343.282 97.2814 343.37 97.6254 343.37C97.9774 343.37 98.3054 343.282 98.6094 343.106C98.9134 342.93 99.1574 342.674 99.3414 342.338C99.5334 341.994 99.6294 341.594 99.6294 341.138ZM106.142 337.73C106.662 337.73 107.126 337.838 107.534 338.054C107.95 338.27 108.274 338.59 108.506 339.014C108.738 339.438 108.854 339.95 108.854 340.55V344.45H107.498V340.754C107.498 340.162 107.35 339.71 107.054 339.398C106.758 339.078 106.354 338.918 105.842 338.918C105.33 338.918 104.922 339.078 104.618 339.398C104.322 339.71 104.174 340.162 104.174 340.754V344.45H102.806V337.838H104.174V338.594C104.398 338.322 104.682 338.11 105.026 337.958C105.378 337.806 105.75 337.73 106.142 337.73ZM119.704 337.838V344.45H118.336V343.67C118.12 343.942 117.836 344.158 117.484 344.318C117.14 344.47 116.772 344.546 116.38 344.546C115.86 344.546 115.392 344.438 114.976 344.222C114.568 344.006 114.244 343.686 114.004 343.262C113.772 342.838 113.656 342.326 113.656 341.726V337.838H115.012V341.522C115.012 342.114 115.16 342.57 115.456 342.89C115.752 343.202 116.156 343.358 116.668 343.358C117.18 343.358 117.584 343.202 117.88 342.89C118.184 342.57 118.336 342.114 118.336 341.522V337.838H119.704ZM122.877 338.81C123.109 338.506 123.425 338.25 123.825 338.042C124.225 337.834 124.677 337.73 125.181 337.73C125.757 337.73 126.281 337.874 126.753 338.162C127.233 338.442 127.609 338.838 127.881 339.35C128.153 339.862 128.289 340.45 128.289 341.114C128.289 341.778 128.153 342.374 127.881 342.902C127.609 343.422 127.233 343.83 126.753 344.126C126.281 344.414 125.757 344.558 125.181 344.558C124.677 344.558 124.229 344.458 123.837 344.258C123.445 344.05 123.125 343.794 122.877 343.49V347.594H121.509V337.838H122.877V338.81ZM126.897 341.114C126.897 340.658 126.801 340.266 126.609 339.938C126.425 339.602 126.177 339.35 125.865 339.182C125.561 339.006 125.233 338.918 124.881 338.918C124.537 338.918 124.209 339.006 123.897 339.182C123.593 339.358 123.345 339.614 123.153 339.95C122.969 340.286 122.877 340.682 122.877 341.138C122.877 341.594 122.969 341.994 123.153 342.338C123.345 342.674 123.593 342.93 123.897 343.106C124.209 343.282 124.537 343.37 124.881 343.37C125.233 343.37 125.561 343.282 125.865 343.106C126.177 342.922 126.425 342.658 126.609 342.314C126.801 341.97 126.897 341.57 126.897 341.114ZM132.042 344.558C131.522 344.558 131.054 344.466 130.638 344.282C130.23 344.09 129.906 343.834 129.666 343.514C129.426 343.186 129.298 342.822 129.282 342.422H130.698C130.722 342.702 130.854 342.938 131.094 343.13C131.342 343.314 131.65 343.406 132.018 343.406C132.402 343.406 132.698 343.334 132.906 343.19C133.122 343.038 133.23 342.846 133.23 342.614C133.23 342.366 133.11 342.182 132.87 342.062C132.638 341.942 132.266 341.81 131.754 341.666C131.258 341.53 130.854 341.398 130.542 341.27C130.23 341.142 129.958 340.946 129.726 340.682C129.502 340.418 129.39 340.07 129.39 339.638C129.39 339.286 129.494 338.966 129.702 338.678C129.91 338.382 130.206 338.15 130.59 337.982C130.982 337.814 131.43 337.73 131.934 337.73C132.686 337.73 133.29 337.922 133.746 338.306C134.21 338.682 134.458 339.198 134.49 339.854H133.122C133.098 339.558 132.978 339.322 132.762 339.146C132.546 338.97 132.254 338.882 131.886 338.882C131.526 338.882 131.25 338.95 131.058 339.086C130.866 339.222 130.77 339.402 130.77 339.626C130.77 339.802 130.834 339.95 130.962 340.07C131.09 340.19 131.246 340.286 131.43 340.358C131.614 340.422 131.886 340.506 132.246 340.61C132.726 340.738 133.118 340.87 133.422 341.006C133.734 341.134 134.002 341.326 134.226 341.582C134.45 341.838 134.566 342.178 134.574 342.602C134.574 342.978 134.47 343.314 134.262 343.61C134.054 343.906 133.758 344.138 133.374 344.306C132.998 344.474 132.554 344.558 132.042 344.558Z" fill="#AEB9E1"/>
<path d="M47.533 380.028L41.149 394.98H37.741L44.173 380.412H35.965V377.532H47.533V380.028ZM61.3054 380.388H53.5294V384.492C53.8654 384.076 54.3454 383.74 54.9694 383.484C55.5934 383.212 56.2574 383.076 56.9614 383.076C58.2414 383.076 59.2894 383.356 60.1054 383.916C60.9214 384.476 61.5134 385.196 61.8814 386.076C62.2494 386.94 62.4334 387.868 62.4334 388.86C62.4334 390.7 61.9054 392.18 60.8494 393.3C59.8094 394.42 58.3214 394.98 56.3854 394.98C54.5614 394.98 53.1054 394.524 52.0174 393.612C50.9294 392.7 50.3134 391.508 50.1694 390.036H53.4334C53.5774 390.676 53.8974 391.188 54.3934 391.572C54.9054 391.956 55.5534 392.148 56.3374 392.148C57.2814 392.148 57.9934 391.852 58.4734 391.26C58.9534 390.668 59.1934 389.884 59.1934 388.908C59.1934 387.916 58.9454 387.164 58.4494 386.652C57.9694 386.124 57.2574 385.86 56.3134 385.86C55.6414 385.86 55.0814 386.028 54.6334 386.364C54.1854 386.7 53.8654 387.148 53.6734 387.708H50.4574V377.436H61.3054V380.388ZM74.0628 381.852C73.9028 381.18 73.6228 380.676 73.2228 380.34C72.8388 380.004 72.2788 379.836 71.5428 379.836C70.4388 379.836 69.6228 380.284 69.0948 381.18C68.5828 382.06 68.3188 383.5 68.3028 385.5C68.6868 384.86 69.2468 384.364 69.9828 384.012C70.7188 383.644 71.5188 383.46 72.3828 383.46C73.4228 383.46 74.3428 383.684 75.1428 384.132C75.9428 384.58 76.5668 385.236 77.0148 386.1C77.4628 386.948 77.6868 387.972 77.6868 389.172C77.6868 390.308 77.4548 391.324 76.9908 392.22C76.5428 393.1 75.8788 393.788 74.9988 394.284C74.1188 394.78 73.0708 395.028 71.8548 395.028C70.1908 395.028 68.8788 394.66 67.9188 393.924C66.9748 393.188 66.3108 392.164 65.9268 390.852C65.5588 389.524 65.3748 387.892 65.3748 385.956C65.3748 383.028 65.8788 380.82 66.8867 379.332C67.8948 377.828 69.4868 377.076 71.6628 377.076C73.3428 377.076 74.6468 377.532 75.5748 378.444C76.5028 379.356 77.0388 380.492 77.1828 381.852H74.0628ZM71.6148 386.22C70.7668 386.22 70.0548 386.468 69.4788 386.964C68.9028 387.46 68.6148 388.18 68.6148 389.124C68.6148 390.068 68.8788 390.812 69.4068 391.356C69.9508 391.9 70.7108 392.172 71.6868 392.172C72.5508 392.172 73.2308 391.908 73.7268 391.38C74.2388 390.852 74.4948 390.14 74.4948 389.244C74.4948 388.316 74.2468 387.58 73.7508 387.036C73.2708 386.492 72.5588 386.22 71.6148 386.22Z" fill="white"/>
<rect x="91.125" y="377.98" width="38" height="18" rx="2" fill="#05C168" fill-opacity="0.2"/>
<rect x="91.425" y="378.28" width="37.4" height="17.4" rx="1.7" stroke="#05C168" stroke-opacity="0.2" stroke-width="0.6"/>
<path d="M95.705 385.49C95.745 384.87 95.9817 384.386 96.415 384.04C96.855 383.693 97.415 383.52 98.095 383.52C98.5617 383.52 98.965 383.603 99.305 383.77C99.645 383.936 99.9017 384.163 100.075 384.45C100.248 384.736 100.335 385.06 100.335 385.42C100.335 385.833 100.225 386.186 100.005 386.48C99.785 386.773 99.5217 386.97 99.215 387.07V387.11C99.6083 387.23 99.915 387.45 100.135 387.77C100.355 388.083 100.465 388.486 100.465 388.98C100.465 389.373 100.375 389.723 100.195 390.03C100.015 390.336 99.7483 390.58 99.395 390.76C99.0417 390.933 98.6183 391.02 98.125 391.02C97.405 391.02 96.8117 390.836 96.345 390.47C95.885 390.096 95.6383 389.563 95.605 388.87H96.705C96.7317 389.223 96.8683 389.513 97.115 389.74C97.3617 389.96 97.695 390.07 98.115 390.07C98.5217 390.07 98.835 389.96 99.055 389.74C99.275 389.513 99.385 389.223 99.385 388.87C99.385 388.403 99.235 388.073 98.935 387.88C98.6417 387.68 98.1883 387.58 97.575 387.58H97.315V386.64H97.585C98.125 386.633 98.535 386.543 98.815 386.37C99.1017 386.196 99.245 385.923 99.245 385.55C99.245 385.23 99.1417 384.976 98.935 384.79C98.7283 384.596 98.435 384.5 98.055 384.5C97.6817 384.5 97.3917 384.596 97.185 384.79C96.9783 384.976 96.855 385.21 96.815 385.49H95.705ZM102.273 391.05C102.066 391.05 101.893 390.98 101.753 390.84C101.613 390.7 101.543 390.526 101.543 390.32C101.543 390.113 101.613 389.94 101.753 389.8C101.893 389.66 102.066 389.59 102.273 389.59C102.473 389.59 102.643 389.66 102.783 389.8C102.923 389.94 102.993 390.113 102.993 390.32C102.993 390.526 102.923 390.7 102.783 390.84C102.643 390.98 102.473 391.05 102.273 391.05ZM103.925 384.73V383.69H106.005V390.98H104.855V384.73H103.925ZM107.391 385.45C107.391 384.963 107.531 384.583 107.811 384.31C108.097 384.03 108.464 383.89 108.911 383.89C109.357 383.89 109.721 384.03 110.001 384.31C110.287 384.583 110.431 384.963 110.431 385.45C110.431 385.936 110.287 386.32 110.001 386.6C109.721 386.88 109.357 387.02 108.911 387.02C108.464 387.02 108.097 386.88 107.811 386.6C107.531 386.32 107.391 385.936 107.391 385.45ZM113.491 384.02L109.501 390.98H108.381L112.371 384.02H113.491ZM108.911 384.58C108.491 384.58 108.281 384.87 108.281 385.45C108.281 386.036 108.491 386.33 108.911 386.33C109.111 386.33 109.264 386.26 109.371 386.12C109.484 385.973 109.541 385.75 109.541 385.45C109.541 384.87 109.331 384.58 108.911 384.58ZM111.461 389.54C111.461 389.053 111.601 388.673 111.881 388.4C112.167 388.12 112.534 387.98 112.981 387.98C113.421 387.98 113.781 388.12 114.061 388.4C114.347 388.673 114.491 389.053 114.491 389.54C114.491 390.026 114.347 390.41 114.061 390.69C113.781 390.97 113.421 391.11 112.981 391.11C112.534 391.11 112.167 390.97 111.881 390.69C111.601 390.41 111.461 390.026 111.461 389.54ZM112.971 388.67C112.551 388.67 112.341 388.96 112.341 389.54C112.341 390.12 112.551 390.41 112.971 390.41C113.391 390.41 113.601 390.12 113.601 389.54C113.601 388.96 113.391 388.67 112.971 388.67Z" fill="#14CA74"/>
<g clip-path="url(#clip0_1_2527)">
<path d="M118.458 389.646L123.792 384.313" stroke="#14CA74" stroke-width="0.8" stroke-linecap="round" stroke-linejoin="round"/>
<path d="M123.792 389.341V384.313H118.763" stroke="#14CA74" stroke-width="0.8" stroke-linecap="round" stroke-linejoin="round"/>
</g>
<path d="M386.009 341.085C386.769 341.085 387.385 340.438 387.385 339.64C387.385 338.841 386.769 338.194 386.009 338.194C385.25 338.194 384.634 338.841 384.634 339.64C384.634 340.438 385.25 341.085 386.009 341.085Z" fill="#D9E1FA"/>
<path d="M392.509 341.085C393.268 341.085 393.884 340.438 393.884 339.64C393.884 338.841 393.268 338.194 392.509 338.194C391.749 338.194 391.133 338.841 391.133 339.64C391.133 340.438 391.749 341.085 392.509 341.085Z" fill="#D9E1FA"/>
<path d="M379.51 341.085C380.27 341.085 380.885 340.438 380.885 339.64C380.885 338.841 380.27 338.194 379.51 338.194C378.75 338.194 378.134 338.841 378.134 339.64C378.134 340.438 378.75 341.085 379.51 341.085Z" fill="#D9E1FA"/>
<rect x="0.3" y="460.05" width="439.4" height="120.65" rx="7.7" fill="#1D1D1D" stroke="#343B4F" stroke-width="0.6"/>
<path d="M40.9838 488.181C41.1454 487.904 41.546 487.904 41.7076 488.181L43.4189 491.119C43.478 491.221 43.5772 491.293 43.6921 491.318L47.0152 492.037C47.3289 492.105 47.4527 492.486 47.2389 492.726L44.9734 495.261C44.895 495.349 44.8572 495.465 44.869 495.582L45.2115 498.965C45.2438 499.285 44.9197 499.52 44.626 499.391L41.5146 498.02C41.407 497.972 41.2844 497.972 41.1768 498.02L38.0654 499.391C37.7717 499.52 37.4476 499.285 37.4799 498.965L37.8224 495.582C37.8342 495.465 37.7964 495.349 37.718 495.261L35.4525 492.726C35.2387 492.486 35.3625 492.105 35.6762 492.037L38.9993 491.318C39.1142 491.293 39.2134 491.221 39.2725 491.119L40.9838 488.181Z" fill="#AEB9E1"/>
<path d="M58.9937 497.784C58.4337 497.784 57.9297 497.688 57.4817 497.496C57.0337 497.296 56.6817 497.016 56.4257 496.656C56.1697 496.296 56.0417 495.876 56.0417 495.396H57.5057C57.5377 495.756 57.6777 496.052 57.9257 496.284C58.1817 496.516 58.5377 496.632 58.9937 496.632C59.4657 496.632 59.8337 496.52 60.0977 496.296C60.3617 496.064 60.4937 495.768 60.4937 495.408C60.4937 495.128 60.4097 494.9 60.2417 494.724C60.0817 494.548 59.8777 494.412 59.6297 494.316C59.3897 494.22 59.0537 494.116 58.6217 494.004C58.0777 493.86 57.6337 493.716 57.2897 493.572C56.9537 493.42 56.6657 493.188 56.4257 492.876C56.1857 492.564 56.0657 492.148 56.0657 491.628C56.0657 491.148 56.1857 490.728 56.4257 490.368C56.6657 490.008 57.0017 489.732 57.4337 489.54C57.8657 489.348 58.3657 489.252 58.9337 489.252C59.7417 489.252 60.4017 489.456 60.9137 489.864C61.4337 490.264 61.7217 490.816 61.7777 491.52H60.2657C60.2417 491.216 60.0977 490.956 59.8337 490.74C59.5697 490.524 59.2217 490.416 58.7897 490.416C58.3977 490.416 58.0777 490.516 57.8297 490.716C57.5817 490.916 57.4577 491.204 57.4577 491.58C57.4577 491.836 57.5337 492.048 57.6857 492.216C57.8457 492.376 58.0457 492.504 58.2857 492.6C58.5257 492.696 58.8537 492.8 59.2697 492.912C59.8217 493.064 60.2697 493.216 60.6137 493.368C60.9657 493.52 61.2617 493.756 61.5017 494.076C61.7497 494.388 61.8737 494.808 61.8737 495.336C61.8737 495.76 61.7577 496.16 61.5257 496.536C61.3017 496.912 60.9697 497.216 60.5297 497.448C60.0977 497.672 59.5857 497.784 58.9937 497.784ZM69.4759 491.088V497.7H68.1079V496.92C67.8919 497.192 67.6079 497.408 67.2559 497.568C66.9119 497.72 66.5439 497.796 66.1519 497.796C65.6319 497.796 65.1639 497.688 64.7479 497.472C64.3399 497.256 64.0159 496.936 63.7759 496.512C63.5439 496.088 63.4279 495.576 63.4279 494.976V491.088H64.7839V494.772C64.7839 495.364 64.9319 495.82 65.2279 496.14C65.5239 496.452 65.9279 496.608 66.4399 496.608C66.9519 496.608 67.3559 496.452 67.6519 496.14C67.9559 495.82 68.1079 495.364 68.1079 494.772V491.088H69.4759ZM72.6489 492.072C72.8809 491.752 73.1969 491.492 73.5969 491.292C74.0049 491.084 74.4569 490.98 74.9529 490.98C75.5369 490.98 76.0649 491.12 76.5369 491.4C77.0089 491.68 77.3809 492.08 77.6529 492.6C77.9249 493.112 78.0609 493.7 78.0609 494.364C78.0609 495.028 77.9249 495.624 77.6529 496.152C77.3809 496.672 77.0049 497.08 76.5249 497.376C76.0529 497.664 75.5289 497.808 74.9529 497.808C74.4409 497.808 73.9849 497.708 73.5849 497.508C73.1929 497.308 72.8809 497.052 72.6489 496.74V497.7H71.2809V488.82H72.6489V492.072ZM76.6689 494.364C76.6689 493.908 76.5729 493.516 76.3809 493.188C76.1969 492.852 75.9489 492.6 75.6369 492.432C75.3329 492.256 75.0049 492.168 74.6529 492.168C74.3089 492.168 73.9809 492.256 73.6689 492.432C73.3649 492.608 73.1169 492.864 72.9249 493.2C72.7409 493.536 72.6489 493.932 72.6489 494.388C72.6489 494.844 72.7409 495.244 72.9249 495.588C73.1169 495.924 73.3649 496.18 73.6689 496.356C73.9809 496.532 74.3089 496.62 74.6529 496.62C75.0049 496.62 75.3329 496.532 75.6369 496.356C75.9489 496.172 76.1969 495.908 76.3809 495.564C76.5729 495.22 76.6689 494.82 76.6689 494.364ZM81.8137 497.808C81.2937 497.808 80.8257 497.716 80.4097 497.532C80.0017 497.34 79.6777 497.084 79.4377 496.764C79.1977 496.436 79.0697 496.072 79.0537 495.672H80.4697C80.4937 495.952 80.6257 496.188 80.8657 496.38C81.1137 496.564 81.4217 496.656 81.7897 496.656C82.1737 496.656 82.4697 496.584 82.6777 496.44C82.8937 496.288 83.0017 496.096 83.0017 495.864C83.0017 495.616 82.8817 495.432 82.6417 495.312C82.4097 495.192 82.0377 495.06 81.5257 494.916C81.0297 494.78 80.6257 494.648 80.3137 494.52C80.0017 494.392 79.7297 494.196 79.4977 493.932C79.2737 493.668 79.1617 493.32 79.1617 492.888C79.1617 492.536 79.2657 492.216 79.4737 491.928C79.6817 491.632 79.9777 491.4 80.3617 491.232C80.7537 491.064 81.2017 490.98 81.7057 490.98C82.4577 490.98 83.0617 491.172 83.5177 491.556C83.9817 491.932 84.2297 492.448 84.2617 493.104H82.8937C82.8697 492.808 82.7497 492.572 82.5337 492.396C82.3177 492.22 82.0257 492.132 81.6577 492.132C81.2977 492.132 81.0217 492.2 80.8297 492.336C80.6377 492.472 80.5417 492.652 80.5417 492.876C80.5417 493.052 80.6057 493.2 80.7337 493.32C80.8617 493.44 81.0177 493.536 81.2017 493.608C81.3857 493.672 81.6577 493.756 82.0177 493.86C82.4977 493.988 82.8897 494.12 83.1937 494.256C83.5057 494.384 83.7737 494.576 83.9977 494.832C84.2217 495.088 84.3377 495.428 84.3457 495.852C84.3457 496.228 84.2417 496.564 84.0337 496.86C83.8257 497.156 83.5297 497.388 83.1457 497.556C82.7697 497.724 82.3257 497.808 81.8137 497.808ZM85.3678 494.388C85.3678 493.708 85.5038 493.112 85.7758 492.6C86.0558 492.08 86.4398 491.68 86.9278 491.4C87.4158 491.12 87.9758 490.98 88.6078 490.98C89.4078 490.98 90.0678 491.172 90.5878 491.556C91.1158 491.932 91.4718 492.472 91.6558 493.176H90.1798C90.0598 492.848 89.8678 492.592 89.6038 492.408C89.3398 492.224 89.0078 492.132 88.6078 492.132C88.0478 492.132 87.5998 492.332 87.2638 492.732C86.9358 493.124 86.7718 493.676 86.7718 494.388C86.7718 495.1 86.9358 495.656 87.2638 496.056C87.5998 496.456 88.0478 496.656 88.6078 496.656C89.3998 496.656 89.9238 496.308 90.1798 495.612H91.6558C91.4638 496.284 91.1038 496.82 90.5758 497.22C90.0478 497.612 89.3918 497.808 88.6078 497.808C87.9758 497.808 87.4158 497.668 86.9278 497.388C86.4398 497.1 86.0558 496.7 85.7758 496.188C85.5038 495.668 85.3678 495.068 85.3678 494.388ZM94.3871 492.048C94.5871 491.712 94.8511 491.452 95.1791 491.268C95.5151 491.076 95.9111 490.98 96.3671 490.98V492.396H96.0191C95.4831 492.396 95.0751 492.532 94.7951 492.804C94.5231 493.076 94.3871 493.548 94.3871 494.22V497.7H93.0191V491.088H94.3871V492.048ZM98.3206 490.212C98.0726 490.212 97.8646 490.128 97.6966 489.96C97.5286 489.792 97.4446 489.584 97.4446 489.336C97.4446 489.088 97.5286 488.88 97.6966 488.712C97.8646 488.544 98.0726 488.46 98.3206 488.46C98.5606 488.46 98.7646 488.544 98.9326 488.712C99.1006 488.88 99.1846 489.088 99.1846 489.336C99.1846 489.584 99.1006 489.792 98.9326 489.96C98.7646 490.128 98.5606 490.212 98.3206 490.212ZM98.9926 491.088V497.7H97.6246V491.088H98.9926ZM102.157 492.06C102.389 491.756 102.705 491.5 103.105 491.292C103.505 491.084 103.957 490.98 104.461 490.98C105.037 490.98 105.561 491.124 106.033 491.412C106.513 491.692 106.889 492.088 107.161 492.6C107.433 493.112 107.569 493.7 107.569 494.364C107.569 495.028 107.433 495.624 107.161 496.152C106.889 496.672 106.513 497.08 106.033 497.376C105.561 497.664 105.037 497.808 104.461 497.808C103.957 497.808 103.509 497.708 103.117 497.508C102.725 497.3 102.405 497.044 102.157 496.74V500.844H100.789V491.088H102.157V492.06ZM106.177 494.364C106.177 493.908 106.081 493.516 105.889 493.188C105.705 492.852 105.457 492.6 105.145 492.432C104.841 492.256 104.513 492.168 104.161 492.168C103.817 492.168 103.489 492.256 103.177 492.432C102.873 492.608 102.625 492.864 102.433 493.2C102.249 493.536 102.157 493.932 102.157 494.388C102.157 494.844 102.249 495.244 102.433 495.588C102.625 495.924 102.873 496.18 103.177 496.356C103.489 496.532 103.817 496.62 104.161 496.62C104.513 496.62 104.841 496.532 105.145 496.356C105.457 496.172 105.705 495.908 105.889 495.564C106.081 495.22 106.177 494.82 106.177 494.364ZM110.517 492.204V495.864C110.517 496.112 110.573 496.292 110.685 496.404C110.805 496.508 111.005 496.56 111.285 496.56H112.125V497.7H111.045C110.429 497.7 109.957 497.556 109.629 497.268C109.301 496.98 109.137 496.512 109.137 495.864V492.204H108.357V491.088H109.137V489.444H110.517V491.088H112.125V492.204H110.517ZM114.082 490.212C113.834 490.212 113.626 490.128 113.458 489.96C113.29 489.792 113.206 489.584 113.206 489.336C113.206 489.088 113.29 488.88 113.458 488.712C113.626 488.544 113.834 488.46 114.082 488.46C114.322 488.46 114.526 488.544 114.694 488.712C114.862 488.88 114.946 489.088 114.946 489.336C114.946 489.584 114.862 489.792 114.694 489.96C114.526 490.128 114.322 490.212 114.082 490.212ZM114.754 491.088V497.7H113.386V491.088H114.754ZM119.418 497.808C118.794 497.808 118.23 497.668 117.726 497.388C117.222 497.1 116.826 496.7 116.538 496.188C116.25 495.668 116.106 495.068 116.106 494.388C116.106 493.716 116.254 493.12 116.55 492.6C116.846 492.08 117.25 491.68 117.762 491.4C118.274 491.12 118.846 490.98 119.478 490.98C120.11 490.98 120.682 491.12 121.194 491.4C121.706 491.68 122.11 492.08 122.406 492.6C122.702 493.12 122.85 493.716 122.85 494.388C122.85 495.06 122.698 495.656 122.394 496.176C122.09 496.696 121.674 497.1 121.146 497.388C120.626 497.668 120.05 497.808 119.418 497.808ZM119.418 496.62C119.77 496.62 120.098 496.536 120.402 496.368C120.714 496.2 120.966 495.948 121.158 495.612C121.35 495.276 121.446 494.868 121.446 494.388C121.446 493.908 121.354 493.504 121.17 493.176C120.986 492.84 120.742 492.588 120.438 492.42C120.134 492.252 119.806 492.168 119.454 492.168C119.102 492.168 118.774 492.252 118.47 492.42C118.174 492.588 117.938 492.84 117.762 493.176C117.586 493.504 117.498 493.908 117.498 494.388C117.498 495.1 117.678 495.652 118.038 496.044C118.406 496.428 118.866 496.62 119.418 496.62ZM127.539 490.98C128.059 490.98 128.523 491.088 128.931 491.304C129.347 491.52 129.671 491.84 129.903 492.264C130.135 492.688 130.251 493.2 130.251 493.8V497.7H128.895V494.004C128.895 493.412 128.747 492.96 128.451 492.648C128.155 492.328 127.751 492.168 127.239 492.168C126.727 492.168 126.319 492.328 126.015 492.648C125.719 492.96 125.571 493.412 125.571 494.004V497.7H124.203V491.088H125.571V491.844C125.795 491.572 126.079 491.36 126.423 491.208C126.775 491.056 127.147 490.98 127.539 490.98ZM134.396 497.808C133.876 497.808 133.408 497.716 132.992 497.532C132.584 497.34 132.26 497.084 132.02 496.764C131.78 496.436 131.652 496.072 131.636 495.672H133.052C133.076 495.952 133.208 496.188 133.448 496.38C133.696 496.564 134.004 496.656 134.372 496.656C134.756 496.656 135.052 496.584 135.26 496.44C135.476 496.288 135.584 496.096 135.584 495.864C135.584 495.616 135.464 495.432 135.224 495.312C134.992 495.192 134.62 495.06 134.108 494.916C133.612 494.78 133.208 494.648 132.896 494.52C132.584 494.392 132.312 494.196 132.08 493.932C131.856 493.668 131.744 493.32 131.744 492.888C131.744 492.536 131.848 492.216 132.056 491.928C132.264 491.632 132.56 491.4 132.944 491.232C133.336 491.064 133.784 490.98 134.288 490.98C135.04 490.98 135.644 491.172 136.1 491.556C136.564 491.932 136.812 492.448 136.844 493.104H135.476C135.452 492.808 135.332 492.572 135.116 492.396C134.9 492.22 134.608 492.132 134.24 492.132C133.88 492.132 133.604 492.2 133.412 492.336C133.22 492.472 133.124 492.652 133.124 492.876C133.124 493.052 133.188 493.2 133.316 493.32C133.444 493.44 133.6 493.536 133.784 493.608C133.968 493.672 134.24 493.756 134.6 493.86C135.08 493.988 135.472 494.12 135.776 494.256C136.088 494.384 136.356 494.576 136.58 494.832C136.804 495.088 136.92 495.428 136.928 495.852C136.928 496.228 136.824 496.564 136.616 496.86C136.408 497.156 136.112 497.388 135.728 497.556C135.352 497.724 134.908 497.808 134.396 497.808Z" fill="#AEB9E1"/>
<path d="M37.453 544.438C38.989 543.158 40.213 542.094 41.125 541.246C42.037 540.382 42.797 539.486 43.405 538.558C44.013 537.63 44.317 536.718 44.317 535.822C44.317 535.006 44.125 534.366 43.741 533.902C43.357 533.438 42.765 533.206 41.965 533.206C41.165 533.206 40.549 533.478 40.117 534.022C39.685 534.55 39.461 535.278 39.445 536.206H36.181C36.245 534.286 36.813 532.83 37.885 531.838C38.973 530.846 40.349 530.35 42.013 530.35C43.837 530.35 45.237 530.838 46.213 531.814C47.189 532.774 47.677 534.046 47.677 535.63C47.677 536.878 47.341 538.07 46.669 539.206C45.997 540.342 45.229 541.334 44.365 542.182C43.501 543.014 42.373 544.022 40.981 545.206H48.061V547.99H36.205V545.494L37.453 544.438ZM52.0503 548.398C51.4423 548.398 50.9383 548.214 50.5383 547.846C50.1543 547.462 49.9623 546.99 49.9623 546.43C49.9623 545.87 50.1543 545.406 50.5383 545.038C50.9383 544.654 51.4423 544.462 52.0503 544.462C52.6423 544.462 53.1303 544.654 53.5143 545.038C53.8983 545.406 54.0903 545.87 54.0903 546.43C54.0903 546.99 53.8983 547.462 53.5143 547.846C53.1303 548.214 52.6423 548.398 52.0503 548.398ZM56.4606 535.342C56.5406 533.742 57.1006 532.51 58.1406 531.646C59.1966 530.766 60.5806 530.326 62.2926 530.326C63.4606 530.326 64.4606 530.534 65.2926 530.95C66.1246 531.35 66.7486 531.902 67.1646 532.606C67.5966 533.294 67.8126 534.078 67.8126 534.958C67.8126 535.966 67.5486 536.822 67.0206 537.526C66.5086 538.214 65.8926 538.678 65.1726 538.918V539.014C66.1006 539.302 66.8206 539.814 67.3326 540.55C67.8606 541.286 68.1246 542.23 68.1246 543.382C68.1246 544.342 67.9006 545.198 67.4526 545.95C67.0206 546.702 66.3726 547.294 65.5086 547.726C64.6606 548.142 63.6366 548.35 62.4366 548.35C60.6286 548.35 59.1566 547.894 58.0206 546.982C56.8846 546.07 56.2846 544.726 56.2206 542.95H59.4846C59.5166 543.734 59.7806 544.366 60.2766 544.846C60.7886 545.31 61.4846 545.542 62.3646 545.542C63.1806 545.542 63.8046 545.318 64.2366 544.87C64.6846 544.406 64.9086 543.814 64.9086 543.094C64.9086 542.134 64.6046 541.446 63.9966 541.03C63.3886 540.614 62.4446 540.406 61.1646 540.406H60.4686V537.646H61.1646C63.4366 537.646 64.5726 536.886 64.5726 535.366C64.5726 534.678 64.3646 534.142 63.9486 533.758C63.5486 533.374 62.9646 533.182 62.1966 533.182C61.4446 533.182 60.8606 533.39 60.4446 533.806C60.0446 534.206 59.8126 534.718 59.7486 535.342H56.4606ZM80.6198 548.23L74.5238 540.766V548.23H71.1638V531.478H74.5238V538.99L80.6198 531.478H84.6758L77.7638 539.782L84.8678 548.23H80.6198Z" fill="white"/>
<rect x="98.125" y="531.23" width="42" height="18" rx="2" fill="#05C168" fill-opacity="0.2"/>
<rect x="98.425" y="531.53" width="41.4" height="17.4" rx="1.7" stroke="#05C168" stroke-opacity="0.2" stroke-width="0.6"/>
<path d="M102.575 537.98V536.94H104.655V544.23H103.505V537.98H102.575ZM106.071 537.98V536.94H108.151V544.23H107.001V537.98H106.071ZM110.327 544.3C110.121 544.3 109.947 544.23 109.807 544.09C109.667 543.95 109.597 543.776 109.597 543.57C109.597 543.363 109.667 543.19 109.807 543.05C109.947 542.91 110.121 542.84 110.327 542.84C110.527 542.84 110.697 542.91 110.837 543.05C110.977 543.19 111.047 543.363 111.047 543.57C111.047 543.776 110.977 543.95 110.837 544.09C110.697 544.23 110.527 544.3 110.327 544.3ZM112.109 538.74C112.149 538.12 112.386 537.636 112.819 537.29C113.259 536.943 113.819 536.77 114.499 536.77C114.966 536.77 115.369 536.853 115.709 537.02C116.049 537.186 116.306 537.413 116.479 537.7C116.653 537.986 116.739 538.31 116.739 538.67C116.739 539.083 116.629 539.436 116.409 539.73C116.189 540.023 115.926 540.22 115.619 540.32V540.36C116.013 540.48 116.319 540.7 116.539 541.02C116.759 541.333 116.869 541.736 116.869 542.23C116.869 542.623 116.779 542.973 116.599 543.28C116.419 543.586 116.153 543.83 115.799 544.01C115.446 544.183 115.023 544.27 114.529 544.27C113.809 544.27 113.216 544.086 112.749 543.72C112.289 543.346 112.043 542.813 112.009 542.12H113.109C113.136 542.473 113.273 542.763 113.519 542.99C113.766 543.21 114.099 543.32 114.519 543.32C114.926 543.32 115.239 543.21 115.459 542.99C115.679 542.763 115.789 542.473 115.789 542.12C115.789 541.653 115.639 541.323 115.339 541.13C115.046 540.93 114.593 540.83 113.979 540.83H113.719V539.89H113.989C114.529 539.883 114.939 539.793 115.219 539.62C115.506 539.446 115.649 539.173 115.649 538.8C115.649 538.48 115.546 538.226 115.339 538.04C115.133 537.846 114.839 537.75 114.459 537.75C114.086 537.75 113.796 537.846 113.589 538.04C113.383 538.226 113.259 538.46 113.219 538.74H112.109ZM117.887 538.7C117.887 538.213 118.027 537.833 118.307 537.56C118.593 537.28 118.96 537.14 119.407 537.14C119.853 537.14 120.217 537.28 120.497 537.56C120.783 537.833 120.927 538.213 120.927 538.7C120.927 539.186 120.783 539.57 120.497 539.85C120.217 540.13 119.853 540.27 119.407 540.27C118.96 540.27 118.593 540.13 118.307 539.85C118.027 539.57 117.887 539.186 117.887 538.7ZM123.987 537.27L119.997 544.23H118.877L122.867 537.27H123.987ZM119.407 537.83C118.987 537.83 118.777 538.12 118.777 538.7C118.777 539.286 118.987 539.58 119.407 539.58C119.607 539.58 119.76 539.51 119.867 539.37C119.98 539.223 120.037 539 120.037 538.7C120.037 538.12 119.827 537.83 119.407 537.83ZM121.957 542.79C121.957 542.303 122.097 541.923 122.377 541.65C122.663 541.37 123.03 541.23 123.477 541.23C123.917 541.23 124.277 541.37 124.557 541.65C124.843 541.923 124.987 542.303 124.987 542.79C124.987 543.276 124.843 543.66 124.557 543.94C124.277 544.22 123.917 544.36 123.477 544.36C123.03 544.36 122.663 544.22 122.377 543.94C122.097 543.66 121.957 543.276 121.957 542.79ZM123.467 541.92C123.047 541.92 122.837 542.21 122.837 542.79C122.837 543.37 123.047 543.66 123.467 543.66C123.887 543.66 124.097 543.37 124.097 542.79C124.097 542.21 123.887 541.92 123.467 541.92Z" fill="#14CA74"/>
<path d="M129.458 542.896L134.792 537.563" stroke="#14CA74" stroke-width="0.8" stroke-linecap="round" stroke-linejoin="round"/>
<path d="M134.792 542.591V537.563H129.763" stroke="#14CA74" stroke-width="0.8" stroke-linecap="round" stroke-linejoin="round"/>
<path d="M387.009 495.124C387.769 495.124 388.385 494.477 388.385 493.679C388.385 492.88 387.769 492.233 387.009 492.233C386.25 492.233 385.634 492.88 385.634 493.679C385.634 494.477 386.25 495.124 387.009 495.124Z" fill="#D9E1FA"/>
<path d="M393.509 495.124C394.268 495.124 394.884 494.477 394.884 493.679C394.884 492.88 394.268 492.233 393.509 492.233C392.749 492.233 392.133 492.88 392.133 493.679C392.133 494.477 392.749 495.124 393.509 495.124Z" fill="#D9E1FA"/>
<path d="M380.51 495.124C381.27 495.124 381.885 494.477 381.885 493.679C381.885 492.88 381.27 492.233 380.51 492.233C379.75 492.233 379.134 492.88 379.134 493.679C379.134 494.477 379.75 495.124 380.51 495.124Z" fill="#D9E1FA"/>
<defs>
<clipPath id="clip0_1_2527">
<rect width="8" height="8" fill="white" transform="translate(117.125 382.98)"/>
</clipPath>
</defs>
</svg>
