<svg width="32" height="32" viewBox="0 0 32 32" fill="none" xmlns="http://www.w3.org/2000/svg">
<path d="M27.7275 21.993C27.0338 20.798 26.0025 17.4168 26.0025 13.0005C26.0025 10.3484 24.9489 7.80485 23.0736 5.92948C21.1982 4.05412 18.6547 3.00055 16.0025 3.00055C13.3504 3.00055 10.8068 4.05412 8.93145 5.92948C7.05609 7.80485 6.00252 10.3484 6.00252 13.0005C6.00252 17.418 4.97002 20.798 4.27627 21.993C4.09911 22.2969 4.00519 22.642 4.00398 22.9937C4.00277 23.3454 4.09432 23.6912 4.26939 23.9962C4.44446 24.3012 4.69687 24.5546 5.00115 24.731C5.30543 24.9073 5.65083 25.0003 6.00252 25.0005H11.1038C11.3345 26.1295 11.948 27.1441 12.8407 27.8728C13.7333 28.6014 14.8502 28.9994 16.0025 28.9994C17.1548 28.9994 18.2717 28.6014 19.1644 27.8728C20.057 27.1441 20.6706 26.1295 20.9013 25.0005H26.0025C26.3541 25.0001 26.6993 24.9069 27.0034 24.7305C27.3076 24.5541 27.5598 24.3006 27.7347 23.9956C27.9096 23.6906 28.0011 23.3449 27.9998 22.9934C27.9985 22.6418 27.9046 22.2968 27.7275 21.993ZM16.0025 27.0005C15.3823 27.0004 14.7774 26.8079 14.271 26.4498C13.7647 26.0916 13.3818 25.5853 13.175 25.0005H18.83C18.6233 25.5853 18.2404 26.0916 17.734 26.4498C17.2277 26.8079 16.6227 27.0004 16.0025 27.0005ZM6.00252 23.0005C6.96502 21.3455 8.00252 17.5105 8.00252 13.0005C8.00252 10.8788 8.84537 8.84399 10.3457 7.3437C11.846 5.8434 13.8808 5.00055 16.0025 5.00055C18.1243 5.00055 20.1591 5.8434 21.6594 7.3437C23.1597 8.84399 24.0025 10.8788 24.0025 13.0005C24.0025 17.5068 25.0375 21.3418 26.0025 23.0005H6.00252Z" fill="white"/>
<circle cx="21.0001" cy="5.99957" r="5" fill="#FFCFCF"/>
<circle cx="21.0001" cy="6.00006" r="4" fill="#DC1010"/>
</svg>
