<svg width="32" height="32" viewBox="0 0 32 32" fill="none" xmlns="http://www.w3.org/2000/svg">
<path d="M26.9999 4H4.99985C4.46942 4 3.96071 4.21071 3.58564 4.58579C3.21057 4.96086 2.99985 5.46957 2.99985 6V26C2.99755 26.3814 3.10544 26.7553 3.31055 27.0768C3.51567 27.3984 3.80928 27.6538 4.1561 27.8125C4.42039 27.9356 4.70832 27.9995 4.99985 28C5.46936 27.9989 5.92329 27.8315 6.2811 27.5275C6.28707 27.5236 6.29253 27.519 6.29735 27.5138L10.3124 24H26.9999C27.5303 24 28.039 23.7893 28.4141 23.4142C28.7891 23.0391 28.9999 22.5304 28.9999 22V6C28.9999 5.46957 28.7891 4.96086 28.4141 4.58579C28.039 4.21071 27.5303 4 26.9999 4ZM26.9999 22H10.3124C9.84138 21.9998 9.38544 22.1658 9.02485 22.4688L9.00985 22.4825L4.99985 26V6H26.9999V22Z" fill="white"/>
<circle cx="26.0001" cy="6" r="5" fill="#FFCFCF"/>
<circle cx="26.0001" cy="6" r="4" fill="#DC1010"/>
</svg>
