<svg width="23" height="23" viewBox="0 0 23 23" fill="none" xmlns="http://www.w3.org/2000/svg">
<path d="M22.5182 21.28L17.0418 15.8047C18.6291 13.899 19.4206 11.4548 19.2517 8.98048C19.0828 6.50614 17.9664 4.19218 16.1348 2.51996C14.3033 0.847743 11.8975 -0.0539815 9.41807 0.00236842C6.93861 0.0587183 4.57632 1.0688 2.82262 2.8225C1.06893 4.5762 0.0588404 6.93849 0.00249049 9.41795C-0.0538594 11.8974 0.847865 14.3032 2.52008 16.1347C4.1923 17.9663 6.50626 19.0826 8.9806 19.2516C11.4549 19.4205 13.8992 18.629 15.8048 17.0417L21.2801 22.5181C21.3614 22.5994 21.4579 22.6639 21.5641 22.7079C21.6704 22.7519 21.7842 22.7745 21.8992 22.7745C22.0141 22.7745 22.128 22.7519 22.2342 22.7079C22.3404 22.6639 22.4369 22.5994 22.5182 22.5181C22.5995 22.4368 22.664 22.3403 22.708 22.2341C22.752 22.1279 22.7747 22.014 22.7747 21.8991C22.7747 21.7841 22.752 21.6702 22.708 21.564C22.664 21.4578 22.5995 21.3613 22.5182 21.28ZM1.77418 9.64905C1.77418 8.09153 2.23604 6.56897 3.10135 5.27394C3.96667 3.9789 5.19658 2.96954 6.63554 2.3735C8.07451 1.77746 9.65791 1.62151 11.1855 1.92537C12.7131 2.22923 14.1163 2.97925 15.2176 4.08059C16.319 5.18193 17.069 6.58512 17.3729 8.11272C17.6767 9.64032 17.5208 11.2237 16.9247 12.6627C16.3287 14.1017 15.3193 15.3316 14.0243 16.1969C12.7293 17.0622 11.2067 17.5241 9.64918 17.5241C7.56131 17.5217 5.55961 16.6913 4.08327 15.215C2.60692 13.7386 1.77649 11.7369 1.77418 9.64905Z" fill="#AFAFAF"/>
</svg>
