<svg width="40" height="40" viewBox="0 0 40 40" fill="none" xmlns="http://www.w3.org/2000/svg">
<path fill-rule="evenodd" clip-rule="evenodd" d="M25.5557 11.6853C23.9112 10.5865 21.9778 10 20 10V0C23.9556 0 27.8224 1.17298 31.1114 3.37061C34.4004 5.56823 36.9638 8.69181 38.4776 12.3463C39.9913 16.0008 40.3874 20.0222 39.6157 23.9018C38.844 27.7814 36.9392 31.3451 34.1421 34.1421C31.3451 36.9392 27.7814 38.844 23.9018 39.6157C20.0222 40.3874 16.0008 39.9913 12.3463 38.4776C8.6918 36.9638 5.56823 34.4004 3.37061 31.1114C1.17298 27.8224 0 23.9556 0 20H10C10 21.9778 10.5865 23.9112 11.6853 25.5557C12.7841 27.2002 14.3459 28.4819 16.1732 29.2388C18.0004 29.9957 20.0111 30.1937 21.9509 29.8078C23.8907 29.422 25.6725 28.4696 27.0711 27.0711C28.4696 25.6725 29.422 23.8907 29.8078 21.9509C30.1937 20.0111 29.9957 18.0004 29.2388 16.1732C28.4819 14.3459 27.2002 12.7841 25.5557 11.6853Z" fill="#CB3CFF"/>
<path fill-rule="evenodd" clip-rule="evenodd" d="M10.1364 5.28493e-06C10.1364 1.31322 9.87418 2.61358 9.36478 3.82684C8.85537 5.04009 8.10874 6.14248 7.16749 7.07107C6.22625 7.99966 5.10882 8.73625 3.87902 9.2388C2.64921 9.74134 1.33112 10 4.43071e-07 10L0 20C2.66225 20 5.29843 19.4827 7.75804 18.4776C10.2177 17.4725 12.4525 15.9993 14.3349 14.1421C16.2175 12.285 17.7108 10.0802 18.7296 7.65367C19.7484 5.22715 20.2727 2.62643 20.2727 0L10.1364 5.28493e-06Z" fill="#CB3CFF"/>
</svg>
