<svg width="28" height="28" viewBox="0 0 28 28" fill="none" xmlns="http://www.w3.org/2000/svg">
<path d="M14.875 13.125V19.25C14.875 19.4821 14.7828 19.7046 14.6187 19.8687C14.4546 20.0328 14.2321 20.125 14 20.125C13.7679 20.125 13.5454 20.0328 13.3813 19.8687C13.2172 19.7046 13.125 19.4821 13.125 19.25V13.125C13.125 12.8929 13.2172 12.6704 13.3813 12.5063C13.5454 12.3422 13.7679 12.25 14 12.25C14.2321 12.25 14.4546 12.3422 14.6187 12.5063C14.7828 12.6704 14.875 12.8929 14.875 13.125ZM26.2347 10.7308L24.7187 22.1069C24.6625 22.5273 24.4555 22.913 24.1363 23.1923C23.817 23.4715 23.4071 23.6253 22.983 23.625H5.01702C4.59285 23.6253 4.18301 23.4715 3.86372 23.1923C3.54444 22.913 3.33744 22.5273 3.28124 22.1069L1.76421 10.7319C1.73115 10.4846 1.75135 10.2331 1.82346 9.99421C1.89558 9.75536 2.01793 9.53469 2.18231 9.347C2.3467 9.15931 2.54931 9.00894 2.77658 8.90597C3.00384 8.803 3.25049 8.74983 3.49999 8.75H7.47796L13.3437 2.04859C13.4259 1.95549 13.5268 1.88092 13.64 1.82984C13.7531 1.77877 13.8758 1.75235 14 1.75235C14.1241 1.75235 14.2469 1.77877 14.36 1.82984C14.4731 1.88092 14.5741 1.95549 14.6562 2.04859L20.522 8.75H24.5C24.7492 8.75016 24.9955 8.80354 25.2224 8.90658C25.4493 9.00962 25.6516 9.15993 25.8157 9.34746C25.9799 9.53499 26.1021 9.75541 26.1741 9.99398C26.2462 10.2325 26.2665 10.4837 26.2336 10.7308H26.2347ZM9.80327 8.75H18.1967L14 3.9539L9.80327 8.75ZM24.5 10.5H3.49999L5.01702 21.875H22.983L24.5 10.5ZM18.9044 13.0375L18.2919 19.1625C18.2798 19.2772 18.2904 19.3931 18.3233 19.5036C18.3562 19.6142 18.4105 19.7171 18.4833 19.8066C18.5561 19.896 18.6458 19.9702 18.7474 20.0248C18.8489 20.0795 18.9602 20.1135 19.075 20.125C19.1045 20.1266 19.1341 20.1266 19.1636 20.125C19.3803 20.1247 19.5892 20.044 19.7499 19.8986C19.9105 19.7531 20.0114 19.5531 20.0331 19.3375L20.6456 13.2125C20.6688 12.9816 20.5994 12.7509 20.4525 12.5712C20.3056 12.3916 20.0934 12.2776 19.8625 12.2544C19.6316 12.2312 19.4009 12.3006 19.2212 12.4475C19.0416 12.5944 18.9276 12.8066 18.9044 13.0375ZM9.09562 13.0375C9.07241 12.8066 8.95843 12.5944 8.77874 12.4475C8.59906 12.3006 8.36839 12.2312 8.13749 12.2544C7.90659 12.2776 7.69436 12.3916 7.54749 12.5712C7.40063 12.7509 7.33116 12.9816 7.35437 13.2125L7.96687 19.3375C7.98863 19.5541 8.09034 19.7548 8.25214 19.9004C8.41393 20.046 8.62419 20.1261 8.84187 20.125C8.87138 20.1266 8.90095 20.1266 8.93046 20.125C9.04479 20.1135 9.15574 20.0796 9.25698 20.0252C9.35821 19.9709 9.44774 19.8971 9.52046 19.8081C9.59318 19.7192 9.64766 19.6167 9.6808 19.5067C9.71394 19.3967 9.72508 19.2812 9.71358 19.1669L9.09562 13.0375Z" fill="#AFAFAF"/>
</svg>
