<svg width="28" height="28" viewBox="0 0 28 28" fill="none" xmlns="http://www.w3.org/2000/svg">
<path d="M11.375 3.5H6.125C5.66087 3.5 5.21575 3.68437 4.88756 4.01256C4.55937 4.34075 4.375 4.78587 4.375 5.25V10.5C4.375 10.9641 4.55937 11.4092 4.88756 11.7374C5.21575 12.0656 5.66087 12.25 6.125 12.25H11.375C11.8391 12.25 12.2842 12.0656 12.6124 11.7374C12.9406 11.4092 13.125 10.9641 13.125 10.5V5.25C13.125 4.78587 12.9406 4.34075 12.6124 4.01256C12.2842 3.68437 11.8391 3.5 11.375 3.5ZM11.375 10.5H6.125V5.25H11.375V10.5ZM21.875 3.5H16.625C16.1609 3.5 15.7158 3.68437 15.3876 4.01256C15.0594 4.34075 14.875 4.78587 14.875 5.25V10.5C14.875 10.9641 15.0594 11.4092 15.3876 11.7374C15.7158 12.0656 16.1609 12.25 16.625 12.25H21.875C22.3391 12.25 22.7842 12.0656 23.1124 11.7374C23.4406 11.4092 23.625 10.9641 23.625 10.5V5.25C23.625 4.78587 23.4406 4.34075 23.1124 4.01256C22.7842 3.68437 22.3391 3.5 21.875 3.5ZM21.875 10.5H16.625V5.25H21.875V10.5ZM11.375 14H6.125C5.66087 14 5.21575 14.1844 4.88756 14.5126C4.55937 14.8408 4.375 15.2859 4.375 15.75V21C4.375 21.4641 4.55937 21.9092 4.88756 22.2374C5.21575 22.5656 5.66087 22.75 6.125 22.75H11.375C11.8391 22.75 12.2842 22.5656 12.6124 22.2374C12.9406 21.9092 13.125 21.4641 13.125 21V15.75C13.125 15.2859 12.9406 14.8408 12.6124 14.5126C12.2842 14.1844 11.8391 14 11.375 14ZM11.375 21H6.125V15.75H11.375V21ZM21.875 14H16.625C16.1609 14 15.7158 14.1844 15.3876 14.5126C15.0594 14.8408 14.875 15.2859 14.875 15.75V21C14.875 21.4641 15.0594 21.9092 15.3876 22.2374C15.7158 22.5656 16.1609 22.75 16.625 22.75H21.875C22.3391 22.75 22.7842 22.5656 23.1124 22.2374C23.4406 21.9092 23.625 21.4641 23.625 21V15.75C23.625 15.2859 23.4406 14.8408 23.1124 14.5126C22.7842 14.1844 22.3391 14 21.875 14ZM21.875 21H16.625V15.75H21.875V21Z" fill="white"/>
</svg>
