<svg width="28" height="28" viewBox="0 0 28 28" fill="none" xmlns="http://www.w3.org/2000/svg">
<path d="M24.465 7.23515L14.84 1.96874C14.5828 1.82664 14.2938 1.75211 14 1.75211C13.7062 1.75211 13.4172 1.82664 13.16 1.96874L3.535 7.23733C3.26013 7.38773 3.03068 7.60916 2.8706 7.87852C2.71053 8.14787 2.62571 8.45526 2.625 8.76858V19.2292C2.62571 19.5425 2.71053 19.8499 2.8706 20.1193C3.03068 20.3886 3.26013 20.6101 3.535 20.7605L13.16 26.0291C13.4172 26.1711 13.7062 26.2457 14 26.2457C14.2938 26.2457 14.5828 26.1711 14.84 26.0291L24.465 20.7605C24.7399 20.6101 24.9693 20.3886 25.1294 20.1193C25.2895 19.8499 25.3743 19.5425 25.375 19.2292V8.76968C25.3749 8.45579 25.2903 8.14772 25.1302 7.87774C24.9701 7.60776 24.7404 7.38581 24.465 7.23515ZM14 3.49999L22.7872 8.31249L14 13.125L5.21281 8.31249L14 3.49999ZM4.375 9.84374L13.125 14.6322V24.0155L4.375 19.2303V9.84374ZM14.875 24.0155V14.6366L23.625 9.84374V19.2259L14.875 24.0155Z" fill="#AFAFAF"/>
</svg>
