<svg width="28" height="28" viewBox="0 0 28 28" fill="none" xmlns="http://www.w3.org/2000/svg">
<path d="M14 8.75C12.9616 8.75 11.9466 9.0579 11.0832 9.63478C10.2199 10.2117 9.54698 11.0316 9.14962 11.9909C8.75226 12.9502 8.64829 14.0058 8.85087 15.0242C9.05344 16.0426 9.55345 16.9781 10.2877 17.7123C11.0219 18.4465 11.9574 18.9465 12.9758 19.1491C13.9942 19.3517 15.0498 19.2477 16.0091 18.8504C16.9684 18.453 17.7883 17.7801 18.3652 16.9167C18.9421 16.0534 19.25 15.0383 19.25 14C19.2485 12.6081 18.695 11.2735 17.7107 10.2893C16.7264 9.30503 15.3919 8.75144 14 8.75ZM14 17.5C13.3078 17.5 12.6311 17.2947 12.0555 16.9101C11.4799 16.5256 11.0313 15.9789 10.7664 15.3394C10.5015 14.6998 10.4322 13.9961 10.5672 13.3172C10.7023 12.6382 11.0356 12.0146 11.5251 11.5251C12.0146 11.0356 12.6382 10.7023 13.3172 10.5672C13.9961 10.4322 14.6998 10.5015 15.3394 10.7664C15.9789 11.0313 16.5255 11.4799 16.9101 12.0555C17.2947 12.6311 17.5 13.3078 17.5 14C17.5 14.9283 17.1312 15.8185 16.4749 16.4749C15.8185 17.1312 14.9282 17.5 14 17.5ZM23.625 14.2362C23.6294 14.0787 23.6294 13.9212 23.625 13.7637L25.2569 11.725C25.3424 11.618 25.4017 11.4923 25.4298 11.3582C25.4579 11.2241 25.4541 11.0852 25.4187 10.9528C25.1512 9.94722 24.751 8.98171 24.2287 8.08172C24.1604 7.96394 24.0654 7.86375 23.9515 7.78913C23.8376 7.7145 23.7078 7.6675 23.5725 7.65187L20.9781 7.36312C20.8702 7.24937 20.7608 7.14 20.65 7.035L20.3437 4.43406C20.328 4.29867 20.2808 4.16883 20.206 4.05489C20.1312 3.94095 20.0308 3.84607 19.9128 3.77781C19.0125 3.25647 18.047 2.85669 17.0417 2.5889C16.9092 2.55368 16.7703 2.55008 16.6362 2.57839C16.5021 2.60669 16.3765 2.66612 16.2695 2.75187L14.2362 4.375C14.0787 4.375 13.9212 4.375 13.7637 4.375L11.725 2.7464C11.6179 2.66084 11.4923 2.60161 11.3582 2.57349C11.2241 2.54538 11.0852 2.54916 10.9528 2.58453C9.94737 2.85253 8.98192 3.25268 8.08171 3.77453C7.96393 3.84292 7.86374 3.93785 7.78912 4.05178C7.7145 4.16571 7.6675 4.29549 7.65186 4.43078L7.36311 7.02953C7.24936 7.13817 7.13999 7.24755 7.03499 7.35765L4.43405 7.65625C4.29866 7.672 4.16882 7.71916 4.05488 7.79398C3.94094 7.8688 3.84606 7.9692 3.7778 8.08718C3.25646 8.98752 2.85668 9.95295 2.5889 10.9583C2.55367 11.0908 2.55007 11.2297 2.57838 11.3638C2.60669 11.4979 2.66611 11.6235 2.75186 11.7305L4.37499 13.7637C4.37499 13.9212 4.37499 14.0787 4.37499 14.2362L2.7464 16.275C2.66083 16.382 2.6016 16.5077 2.57349 16.6418C2.54537 16.7759 2.54915 16.9148 2.58452 17.0472C2.85204 18.0528 3.25222 19.0183 3.77452 19.9183C3.84291 20.0361 3.93784 20.1362 4.05177 20.2109C4.1657 20.2855 4.29548 20.3325 4.43077 20.3481L7.02515 20.6369C7.13379 20.7506 7.24317 20.86 7.35327 20.965L7.65624 23.5659C7.67199 23.7013 7.71916 23.8312 7.79397 23.9451C7.86879 24.059 7.9692 24.1539 8.08718 24.2222C8.98751 24.7435 9.95294 25.1433 10.9583 25.4111C11.0908 25.4463 11.2297 25.4499 11.3638 25.4216C11.4979 25.3933 11.6235 25.3339 11.7305 25.2481L13.7637 23.625C13.9212 23.6294 14.0787 23.6294 14.2362 23.625L16.275 25.2569C16.382 25.3424 16.5077 25.4017 16.6418 25.4298C16.7759 25.4579 16.9148 25.4541 17.0472 25.4187C18.0528 25.1512 19.0183 24.751 19.9183 24.2287C20.036 24.1604 20.1362 24.0654 20.2109 23.9515C20.2855 23.8376 20.3325 23.7078 20.3481 23.5725L20.6369 20.9781C20.7506 20.8702 20.86 20.7608 20.965 20.65L23.5659 20.3437C23.7013 20.328 23.8312 20.2808 23.9451 20.206C24.059 20.1312 24.1539 20.0308 24.2222 19.9128C24.7435 19.0125 25.1433 18.047 25.4111 17.0417C25.4463 16.9092 25.4499 16.7703 25.4216 16.6362C25.3933 16.5021 25.3339 16.3765 25.2481 16.2695L23.625 14.2362ZM21.8641 13.5253C21.8826 13.8415 21.8826 14.1585 21.8641 14.4747C21.851 14.6912 21.9188 14.9048 22.0544 15.0741L23.6064 17.0133C23.4283 17.5793 23.2003 18.1283 22.925 18.6539L20.4531 18.9339C20.2378 18.9578 20.0391 19.0607 19.8953 19.2227C19.6848 19.4594 19.4605 19.6837 19.2237 19.8942C19.0618 20.038 18.9589 20.2368 18.935 20.452L18.6605 22.9217C18.1349 23.1971 17.5859 23.4252 17.0198 23.6031L15.0795 22.0511C14.9243 21.927 14.7314 21.8595 14.5326 21.8597H14.4801C14.164 21.8783 13.847 21.8783 13.5308 21.8597C13.3143 21.8467 13.1007 21.9145 12.9314 22.05L10.9867 23.6031C10.4207 23.425 9.87169 23.197 9.34608 22.9217L9.06608 20.4531C9.04219 20.2379 8.9393 20.0391 8.77733 19.8953C8.54055 19.6848 8.31631 19.4605 8.10577 19.2237C7.96198 19.0618 7.76322 18.9589 7.54796 18.935L5.07827 18.6594C4.80286 18.1338 4.57482 17.5848 4.39686 17.0187L5.94889 15.0784C6.08442 14.9091 6.15224 14.6955 6.13921 14.4791C6.12061 14.1629 6.12061 13.8459 6.13921 13.5297C6.15224 13.3132 6.08442 13.0996 5.94889 12.9303L4.39686 10.9867C4.57495 10.4207 4.80299 9.8717 5.07827 9.34609L7.54686 9.06609C7.76213 9.0422 7.96088 8.93931 8.10468 8.77734C8.31521 8.54055 8.53945 8.31631 8.77624 8.10578C8.93885 7.96189 9.04216 7.76268 9.06608 7.54687L9.34061 5.07828C9.86616 4.80286 10.4152 4.57483 10.9812 4.39687L12.9216 5.9489C13.0909 6.08442 13.3045 6.15225 13.5209 6.13922C13.8371 6.12062 14.1541 6.12062 14.4703 6.13922C14.6868 6.15225 14.9004 6.08442 15.0697 5.9489L17.0133 4.39687C17.5793 4.57496 18.1283 4.80299 18.6539 5.07828L18.9339 7.54687C18.9578 7.76214 19.0607 7.96089 19.2226 8.10468C19.4594 8.31522 19.6837 8.53946 19.8942 8.77625C20.038 8.93822 20.2368 9.0411 20.452 9.065L22.9217 9.33953C23.1971 9.86508 23.4252 10.4141 23.6031 10.9802L22.0511 12.9205C21.9143 13.0912 21.8464 13.307 21.8608 13.5253H21.8641Z" fill="#AFAFAF"/>
</svg>
