<svg width="28" height="28" viewBox="0 0 28 28" fill="none" xmlns="http://www.w3.org/2000/svg">
<path d="M25.1191 6.38092L21.6191 2.88092C21.5378 2.79957 21.4413 2.73503 21.3351 2.691C21.2288 2.64696 21.115 2.6243 21 2.6243C20.885 2.6243 20.7711 2.64696 20.6649 2.691C20.5587 2.73503 20.4622 2.79957 20.3809 2.88092L9.88094 13.3809C9.79971 13.4622 9.73529 13.5588 9.69138 13.665C9.64747 13.7712 9.62491 13.885 9.625 14V17.5C9.625 17.732 9.71719 17.9546 9.88128 18.1187C10.0454 18.2828 10.2679 18.375 10.5 18.375H14C14.1149 18.3751 14.2288 18.3525 14.335 18.3086C14.4412 18.2647 14.5377 18.2003 14.6191 18.119L25.1191 7.61905C25.2004 7.53779 25.265 7.44128 25.309 7.33506C25.353 7.22884 25.3757 7.11497 25.3757 6.99999C25.3757 6.885 25.353 6.77114 25.309 6.66491C25.265 6.55869 25.2004 6.46219 25.1191 6.38092ZM13.638 16.625H11.375V14.362L18.375 7.36202L20.638 9.62499L13.638 16.625ZM21.875 8.38796L19.612 6.12499L21 4.73702L23.263 6.99999L21.875 8.38796ZM24.5 13.125V22.75C24.5 23.2141 24.3156 23.6592 23.9874 23.9874C23.6592 24.3156 23.2141 24.5 22.75 24.5H5.25C4.78587 24.5 4.34075 24.3156 4.01256 23.9874C3.68437 23.6592 3.5 23.2141 3.5 22.75V5.24999C3.5 4.78586 3.68437 4.34074 4.01256 4.01255C4.34075 3.68436 4.78587 3.49999 5.25 3.49999H14.875C15.1071 3.49999 15.3296 3.59217 15.4937 3.75627C15.6578 3.92036 15.75 4.14292 15.75 4.37499C15.75 4.60705 15.6578 4.82961 15.4937 4.9937C15.3296 5.1578 15.1071 5.24999 14.875 5.24999H5.25V22.75H22.75V13.125C22.75 12.8929 22.8422 12.6704 23.0063 12.5063C23.1704 12.3422 23.3929 12.25 23.625 12.25C23.8571 12.25 24.0796 12.3422 24.2437 12.5063C24.4078 12.6704 24.5 12.8929 24.5 13.125Z" fill="#AFAFAF"/>
</svg>
